<?xml version="1.0" encoding="UTF-8"?>
<svg version="1.1" xmlns="http://www.w3.org/2000/svg" width="2048" height="2048">
<path d="M0 0 C0.75394043 0.05317383 1.50788086 0.10634766 2.28466797 0.16113281 C28.74454535 2.10928312 28.74454535 2.10928312 40.75634766 7.98071289 C42.88073339 8.9458174 44.94962314 9.65501998 47.1796875 10.33203125 C52.18645785 11.97186149 56.73553295 14.20900415 61.375 16.6875 C62.20572021 17.12884277 63.03644043 17.57018555 63.89233398 18.02490234 C70.34844827 21.51847341 76.25827344 25.41784037 82 30 C82.81210937 30.61101563 83.62421875 31.22203125 84.4609375 31.8515625 C102.72355217 45.85098006 118.09020381 64.39436705 124 87 C124.33902344 87.99257813 124.67804688 88.98515625 125.02734375 90.0078125 C126.08827745 93.27156839 126.84861525 96.51862037 127.5625 99.875 C127.81128906 101.02742187 128.06007813 102.17984375 128.31640625 103.3671875 C132.03830006 123.1463946 128.76840197 140.10878413 123.88208008 159.30712891 C123.00638719 162.9732597 122.29872493 166.64101477 121.6171875 170.34765625 C119.95108702 178.90527826 117.2369305 187.01196376 114.4375 195.25 C105.89184192 220.46232802 105.53092504 236.83009023 116.27539062 261.45117188 C116.76587891 262.60810547 117.25636719 263.76503906 117.76171875 264.95703125 C118.21506592 265.99835205 118.66841309 267.03967285 119.13549805 268.11254883 C120.08222062 271.27461827 120.00727731 272.89013712 119 276 C117.6171875 277.921875 117.6171875 277.921875 115.875 279.75 C113.21505715 282.63342165 110.74661463 285.56175353 108.375 288.6875 C105.78071565 292.05834397 103.08793419 295.06269675 100 298 C98.59969888 299.37044974 97.20419934 300.74581595 95.8125 302.125 C95.13832031 302.78757812 94.46414063 303.45015625 93.76953125 304.1328125 C91.82446642 306.07943317 91.82446642 306.07943317 90 309 C89.34 309 88.68 309 88 309 C87.67 309.99 87.34 310.98 87 312 C86.34 312 85.68 312 85 312 C84.62875 312.86625 84.62875 312.86625 84.25 313.75 C82.79320504 316.37223092 81.31621258 318.09253081 79 320 C75 320 75 320 73.32421875 318.4609375 C72.78410156 317.77257813 72.24398437 317.08421875 71.6875 316.375 C69.4220221 313.6157641 67.22382263 311.23152388 64.4375 309 C61.95674894 306.95735067 60.10595407 304.93423454 58.25 302.3125 C55.27636843 298.14303804 51.75670781 294.64340232 48.10742188 291.07861328 C44.74881508 287.787591 41.65720151 284.36794452 38.640625 280.765625 C36.90041584 278.89282848 35.04417126 277.46660449 33 275.9375 C30.29391274 273.66511973 30.03914012 273.41488522 29.6875 269.6875 C30.81602214 266.51689016 31.70647108 264.87562901 33.625 262.25 C51.38719446 237.29732681 52.17386948 197.75288305 47.41479492 168.83325195 C43.16079873 145.86549846 33.23565629 121.89345657 13.5625 108.1875 C1.83947647 100.35243801 -10.58331747 94.16393131 -25 97 C-25.99 97.495 -25.99 97.495 -27 98 C-27.4691942 102.59316428 -26.2484694 104.55128179 -23.4375 108.125 C-20.7654486 111.63816671 -18.20801645 115.12785338 -15.875 118.875 C-12.46583744 124.3265538 -8.89462977 129.66079917 -5.3125 135 C6.51277881 152.68364495 17.73739998 170.55463081 27.4375 189.5 C27.76782227 190.13446045 28.09814453 190.7689209 28.43847656 191.42260742 C33.55919289 201.62784653 33.99209694 211.32636862 31.5 222.375 C31.32984375 223.13522461 31.1596875 223.89544922 30.984375 224.67871094 C28.36096624 235.53129212 24.128537 249.871463 16 258 C10.07872524 258.52179816 6.15179965 257.1532535 0.9375 254.6875 C0.25623047 254.37876953 -0.42503906 254.07003906 -1.12695312 253.75195312 C-4.13681706 252.37857621 -7.09614991 250.95025449 -10.03515625 249.4296875 C-12.77754171 248.10727238 -15.52096499 247.0842443 -18.40307617 246.11206055 C-28.20787646 242.75801038 -36.45510952 237.78653205 -45 232 C-45.57878906 231.61408691 -46.15757812 231.22817383 -46.75390625 230.83056641 C-50.55644283 228.29296876 -54.28684136 225.66621541 -58 223 C-58.98742187 222.31292969 -59.97484375 221.62585938 -60.9921875 220.91796875 C-87.17897226 201.8942358 -106.3374712 177.4976161 -114 146 C-114.18401367 145.27925293 -114.36802734 144.55850586 -114.55761719 143.81591797 C-115.9553511 138.05312978 -116.49990519 132.41768455 -116.75 126.5 C-116.79092773 125.5416626 -116.83185547 124.5833252 -116.87402344 123.59594727 C-117.30061902 110.37478255 -115.41404962 97.78124104 -112 85 C-111.77441406 84.15308594 -111.54882812 83.30617188 -111.31640625 82.43359375 C-105.33568034 61.38279012 -94.80697271 42.31824791 -78 28 C-77.34 28 -76.68 28 -76 28 C-76 27.34 -76 26.68 -76 26 C-69.81012431 20.81050826 -62.21192968 17.49256972 -55 14 C-52.99944213 12.98026038 -50.99943746 11.9594347 -49 10.9375 C-47.00212294 9.95400897 -45.00216259 8.97473705 -43 8 C-42.1028125 7.54367187 -41.205625 7.08734375 -40.28125 6.6171875 C-28.20944766 0.95429146 -13.26437067 -0.97260872 0 0 Z " fill="#FFBE1C" transform="translate(516,713)"/>
<path d="M0 0 C0.70831227 -0.00326884 1.41662453 -0.00653768 2.14640081 -0.00990558 C4.52574441 -0.01720307 6.90447672 -0.00301374 9.28378296 0.01104736 C10.98701584 0.01025674 12.69024854 0.00816025 14.39347839 0.00485229 C19.02347128 -0.00028921 23.65324256 0.01326769 28.28319979 0.0303793 C33.12074025 0.04539068 37.95827755 0.04424065 42.7958374 0.04504395 C50.91832271 0.04873835 59.0407236 0.0637159 67.16317749 0.08624268 C77.60290396 0.11513637 88.04256249 0.12546727 98.4823246 0.12992477 C107.44191687 0.13389887 116.40149424 0.14640059 125.36107588 0.16027164 C128.24914612 0.16437744 131.13721583 0.16729957 134.02528763 0.17006683 C138.55439221 0.17494692 143.08345521 0.18512835 147.61253929 0.19950485 C149.27950223 0.20404138 150.94647077 0.2068697 152.61343956 0.20791245 C154.87913544 0.20964834 157.14472597 0.21750502 159.41040039 0.22705078 C160.68134363 0.23002544 161.95228687 0.23300011 163.26174355 0.23606491 C166.07821655 0.36749268 166.07821655 0.36749268 167.07821655 1.36749268 C167.19362739 3.54915828 167.2379307 5.73460278 167.25521851 7.91925049 C167.2617897 8.60386856 167.2683609 9.28848663 167.27513123 9.99385071 C167.29491136 12.2694407 167.30653876 14.54496449 167.3164978 16.82061768 C167.32057333 17.59677177 167.32464886 18.37292587 167.32884789 19.17259979 C167.34973132 23.28264604 167.36402167 27.3926587 167.37338257 31.50274658 C167.38443634 35.74770037 167.41881724 39.99212838 167.45855427 44.23689651 C167.484713 47.50031503 167.49307384 50.76360836 167.49666405 54.0271225 C167.50153401 55.59161672 167.51315979 57.15610521 167.53170204 58.72049713 C167.55607336 60.91347173 167.55513275 63.10508793 167.54818726 65.29815674 C167.5540535 66.54534485 167.55991974 67.79253296 167.56596375 69.07751465 C166.98534385 72.99394253 165.94321121 74.66790627 163.07821655 77.36749268 C159.32821655 77.67999268 159.32821655 77.67999268 156.07821655 77.36749268 C153.73017977 72.84534776 151.69658535 68.38297977 149.89071655 63.61749268 C145.44643928 52.82815492 138.70578568 43.62179784 127.88290405 39.00421143 C117.42830862 34.99624017 107.94716002 32.74451152 97.07821655 36.36749268 C92.24763792 38.56087126 87.65885976 40.78684947 83.88290405 44.56280518 C82.98958374 45.45612549 82.98958374 45.45612549 82.07821655 46.36749268 C81.41821655 46.36749268 80.75821655 46.36749268 80.07821655 46.36749268 C79.80751343 47.10741455 79.5368103 47.84733643 79.25790405 48.60968018 C78.13536704 51.23388922 76.88418995 53.20183981 75.20321655 55.49249268 C71.79198598 60.45048221 69.89159459 65.66068532 68.07821655 71.36749268 C69.15254713 72.6664958 69.15254713 72.6664958 71.7040863 72.48774719 C72.8743486 72.48552658 74.0446109 72.48330597 75.25033569 72.48101807 C75.89421738 72.48116409 76.53809906 72.48131012 77.20149231 72.48146057 C79.33881958 72.48076153 81.47606068 72.47296958 83.6133728 72.46514893 C85.09167941 72.46328471 86.56998663 72.46186083 88.04829407 72.46086121 C91.94620458 72.45703626 95.84407804 72.44720619 99.74197388 72.43615723 C103.71667988 72.42594259 107.69139184 72.42136348 111.66610718 72.4163208 C119.47016056 72.40558389 127.27418337 72.38850777 135.07821655 72.36749268 C136.91744555 76.29555644 137.32669581 79.39329486 137.32113647 83.71490479 C137.3242131 84.97648911 137.32728973 86.23807343 137.33045959 87.53788757 C137.32356021 88.90687238 137.31629312 90.27585537 137.3086853 91.64483643 C137.3074919 93.05821185 137.30704068 94.47158808 137.30729675 95.88496399 C137.30573544 98.84297677 137.29747417 101.80086792 137.2840271 104.7588501 C137.26705348 108.53929134 137.26321261 112.31959893 137.26397228 116.10007381 C137.26369953 119.01781984 137.25820122 121.935537 137.25097084 124.85327339 C137.24780171 126.24664657 137.2458209 127.640023 137.24507713 129.03339958 C137.24289397 130.98584045 137.23332902 132.93826879 137.22348022 134.89068604 C137.21966843 135.99923447 137.21585663 137.1077829 137.21192932 138.24992371 C137.07835513 141.36426173 136.6571016 144.30728102 136.07821655 147.36749268 C113.74076361 148.47963281 91.43689795 148.4768878 69.07821655 148.36749268 C72.01036718 157.11436836 72.01036718 157.11436836 76.82821655 164.92999268 C80.07821655 169.19732461 80.07821655 169.19732461 80.07821655 171.36749268 C80.73821655 171.36749268 81.39821655 171.36749268 82.07821655 171.36749268 C83.09915405 172.66686768 83.09915405 172.66686768 84.14071655 173.99249268 C90.63895041 182.0063496 99.61457144 185.56182184 109.6836853 186.64874268 C120.12075192 187.03709864 129.91089583 182.65004708 138.07821655 176.36749268 C138.73821655 176.36749268 139.39821655 176.36749268 140.07821655 176.36749268 C140.32700562 175.84542236 140.57579468 175.32335205 140.8321228 174.78546143 C142.11406531 172.29793036 143.52102899 169.90151264 144.94613647 167.49395752 C148.97948654 160.65640503 148.97948654 160.65640503 151.76571655 153.24249268 C152.66814021 150.1616068 153.17856017 149.25658658 155.45321655 146.74249268 C158.07821655 145.36749268 158.07821655 145.36749268 160.64071655 145.30499268 C163.94075735 146.743472 165.12054537 148.35057867 167.07821655 151.36749268 C167.56596375 154.7713623 167.56596375 154.7713623 167.54818726 158.71221924 C167.55037766 159.4331073 167.55256805 160.15399536 167.55482483 160.89672852 C167.55712726 163.26766595 167.53093762 165.63734695 167.5039978 168.00811768 C167.49907273 169.65767014 167.49577461 171.30722821 167.49403381 172.95678711 C167.48640506 176.40669719 167.46587338 179.85619072 167.43490601 183.30596924 C167.39520758 187.73708913 167.37727645 192.16793895 167.36759663 196.59921646 C167.35764766 200.81888704 167.33774855 205.03849111 167.3164978 209.25811768 C167.31310205 210.06726875 167.30970631 210.87641983 167.30620766 211.71009064 C167.29468528 213.98692347 167.27617593 216.26358113 167.25521851 218.54034424 C167.24045219 220.48629486 167.24045219 220.48629486 167.22538757 222.47155762 C167.07821655 225.36749268 167.07821655 225.36749268 166.07821655 226.36749268 C160.40084912 227.44247204 154.85930965 227.49782788 149.09481812 227.46514893 C148.11660095 227.46368866 147.13838379 227.46222839 146.13052368 227.46072388 C144.01512392 227.45693098 141.89972729 227.45082833 139.7843399 227.44265747 C136.4286587 227.42983918 133.07301728 227.42336379 129.71731567 227.41851807 C121.38113352 227.40517907 113.04498916 227.38101462 104.70883179 227.3571167 C97.66317707 227.33732151 90.61753668 227.32170548 83.57186127 227.31155396 C80.28002843 227.30511241 76.98825516 227.29260295 73.69644165 227.27984619 C71.65735932 227.27620994 69.61827645 227.27285868 67.57919312 227.26983643 C66.67596313 227.2646701 65.77273315 227.25950378 64.84213257 227.25418091 C59.32543399 227.2537304 53.90987086 227.58174942 48.42106342 228.13953972 C45.75783774 228.39866471 43.12472947 228.49664416 40.4493103 228.50030518 C39.48936157 228.50272217 38.52941284 228.50513916 37.54037476 228.50762939 C33.21325385 228.48597458 28.88653475 228.45677795 24.55966187 228.40460205 C22.20233039 228.37947481 19.84485849 228.36548013 17.48739624 228.3616333 C13.95412227 228.35206063 10.4234636 228.30203476 6.89071655 228.24249268 C5.79880005 228.24523193 4.70688354 228.24797119 3.58187866 228.25079346 C-4.91976174 228.03583247 -4.91976174 228.03583247 -8.5350647 224.87530518 C-13.16608509 218.89137569 -13.21916665 210.99268678 -13.18247986 203.70829773 C-13.18630541 202.88545841 -13.19013095 202.06261909 -13.19407243 201.21484524 C-13.20431336 198.48367852 -13.20042741 195.75272554 -13.19644165 193.02154541 C-13.20079296 191.05292569 -13.2059775 189.08430767 -13.21192932 187.11569214 C-13.22528283 181.78732628 -13.22590225 176.45903151 -13.22336602 171.13065219 C-13.22229422 166.67724066 -13.22718482 162.22384338 -13.23197144 157.77043492 C-13.24305317 147.26412099 -13.24351099 136.75784282 -13.23745728 126.25152588 C-13.23141253 115.42068074 -13.24374432 104.58996535 -13.26502734 93.75914234 C-13.28264731 84.44935035 -13.28864423 75.13959965 -13.2853896 65.82979161 C-13.28357786 60.2740339 -13.28620253 54.71836884 -13.30010414 49.16262627 C-13.31268488 43.93981696 -13.31073596 38.71721006 -13.29769325 33.49440384 C-13.29532879 31.5804252 -13.29805747 29.6664323 -13.30631638 27.75247002 C-13.31679618 25.13464742 -13.30867353 22.51750258 -13.29600525 19.89970398 C-13.30337953 19.14706518 -13.31075382 18.39442638 -13.31835157 17.61898035 C-13.25982326 11.8482887 -12.28241728 6.217716 -8.50953621 1.66234893 C-5.89521585 -0.46970156 -3.30284941 -0.00380895 0 0 Z " fill="#FFFFFF" transform="translate(1213.9217834472656,751.6325073242188)"/>
<path d="M0 0 C0.995476 -0.01248528 0.995476 -0.01248528 2.01106262 -0.02522278 C4.2115359 -0.04937433 6.41171279 -0.05810255 8.61230469 -0.06469727 C10.14207041 -0.07366237 11.67183523 -0.08278419 13.20159912 -0.09205627 C16.41290417 -0.10856466 19.62410476 -0.11624925 22.83544922 -0.11914062 C26.94257737 -0.12451499 31.0487175 -0.16214626 35.15556717 -0.20788479 C38.3178257 -0.23769521 41.47984799 -0.24486509 44.6422348 -0.24586678 C46.15567278 -0.25006415 47.66911178 -0.26247928 49.18241119 -0.28338432 C62.51174385 -0.45279878 62.51174385 -0.45279878 66.35473633 2.6262207 C67.07395264 3.51067871 67.79316895 4.39513672 68.53417969 5.30639648 C69.25577271 6.17180054 69.25577271 6.17180054 69.99194336 7.0546875 C73.52505656 12.9038496 76.27330918 19.07833586 79.01019287 25.33270264 C80.43174493 28.5806457 81.87315906 31.81977939 83.31152344 35.06030273 C83.59243835 35.69468262 83.87335327 36.3290625 84.16278076 36.98266602 C87.21655753 43.86959111 90.42539938 50.67820205 93.66650391 57.47827148 C95.11872188 60.53798116 96.54393991 63.61020938 97.97167969 66.68139648 C100.67339876 72.48618826 103.41228399 78.27286249 106.15917969 84.05639648 C108.89969448 89.82841396 111.60270024 95.61259092 114.22558594 101.43920898 C115.96209248 105.24397257 117.74861886 109.02445947 119.53417969 112.80639648 C124.3551807 123.02754113 128.99310895 133.32320864 133.57519531 143.65332031 C136.19385458 149.55344004 138.84548988 155.43781392 141.53417969 161.30639648 C142.57728614 136.0400403 136.83344706 110.32794633 129.53417969 86.30639648 C129.28861328 85.49557617 129.04304687 84.68475586 128.79003906 83.84936523 C121.20440835 59.39121027 109.81688336 37.20876617 95.02368164 16.40576172 C91.24310506 11.0772618 91.24310506 11.0772618 91.22167969 7.30639648 C91.20492187 6.62577148 91.18816406 5.94514648 91.17089844 5.24389648 C91.66236211 2.62275691 92.3985144 1.90441359 94.53417969 0.30639648 C97.38710022 -0.07455444 97.38710022 -0.07455444 100.90161133 -0.08178711 C102.87364281 -0.09597183 102.87364281 -0.09597183 104.88551331 -0.11044312 C106.32179058 -0.105074 107.75806511 -0.0989212 109.19433594 -0.09204102 C110.66499476 -0.09406163 112.1356526 -0.09697297 113.60630798 -0.10073853 C116.68726143 -0.10516112 119.76795385 -0.09873225 122.84887695 -0.0847168 C126.80258187 -0.06760957 130.75567655 -0.0774757 134.70935917 -0.09543419 C137.74536256 -0.10626115 140.78122061 -0.10283104 143.81722832 -0.09505081 C145.27531443 -0.09304655 146.73341364 -0.095516 148.19148445 -0.10248947 C150.22636801 -0.11008684 152.26129773 -0.09645882 154.29614258 -0.08178711 C155.45513565 -0.07940033 156.61412872 -0.07701355 157.8082428 -0.07455444 C158.70780197 0.05115936 159.60736115 0.17687317 160.53417969 0.30639648 C163.13907125 4.21373383 162.82122861 7.50351842 162.80833435 12.0369873 C162.81357103 12.93989895 162.81880771 13.8428106 162.82420307 14.77308321 C162.83925387 17.81092464 162.83990933 20.84859839 162.84057617 23.88647461 C162.8481941 26.05936469 162.85662096 28.23225206 162.86579895 30.40513611 C162.88778368 36.31613357 162.8965479 42.22707929 162.90162539 48.13811302 C162.90526349 51.82756036 162.9115006 55.51699402 162.91862679 59.20643616 C162.94313259 72.06739907 162.95617617 84.92832157 162.9597168 97.78930664 C162.96335561 109.79489758 162.99327288 121.80019951 163.03512138 133.80571604 C163.06975401 144.10043931 163.085264 154.39507774 163.08596283 164.68985891 C163.08675788 170.84421359 163.09560131 176.99830844 163.12396049 183.15260315 C163.15002159 188.93762893 163.15241339 194.7221772 163.13630486 200.50723457 C163.13448096 202.63456317 163.14126514 204.76191849 163.15712357 206.88918877 C163.17740346 209.78530241 163.16713957 212.67971659 163.14891052 215.57580566 C163.16211049 216.42492035 163.17531046 217.27403504 163.18891042 218.14888048 C163.15500546 220.49419403 163.15500546 220.49419403 162.53417969 224.30639648 C158.55057888 227.78685966 154.31706523 227.84949073 149.22167969 227.99389648 C148.38008301 228.02588135 147.53848633 228.05786621 146.67138672 228.09082031 C138.79671359 228.34794967 130.91532033 228.43343367 123.03677368 228.48062134 C121.63292467 228.48938067 120.22908965 228.50085823 118.82528687 228.51522827 C98.00406354 228.70309781 98.00406354 228.70309781 91.90917969 223.68139648 C87.91147575 219.12845589 85.4892574 213.67192598 82.91699219 208.24389648 C79.53828859 201.13645679 75.79245963 194.21302551 72.10205078 187.26391602 C69.24351927 181.82086403 66.70990107 176.41068071 64.50439453 170.67407227 C62.87072403 166.68732426 60.7882864 162.9565741 58.72167969 159.18139648 C55.1939406 152.6168523 51.9811999 146.02011509 49.08007812 139.15771484 C47.06218837 134.41591105 44.82394293 129.8280643 42.47167969 125.24389648 C39.54973665 119.53424869 37.048818 113.77476084 34.74389648 107.79248047 C33.13464758 103.66834241 31.30853331 99.74185318 29.28417969 95.80639648 C26.09681702 89.60757416 23.32962334 83.27984462 20.59667969 76.86889648 C16.69434309 67.73635521 12.42214755 58.94908827 7.53417969 50.30639648 C7.82444932 68.96281755 13.17622611 86.37544718 18.12255859 104.24926758 C19.42626057 108.99154823 20.65526648 113.69977278 21.57324219 118.53295898 C22.45642926 123.15039593 23.71648326 127.54340218 25.22167969 131.99389648 C25.60815674 133.14728516 25.60815674 133.14728516 26.00244141 134.32397461 C28.22663997 140.77454929 30.97408153 146.88212802 33.95996094 153.00952148 C35.23240439 155.67439066 36.33055397 158.28948138 37.34667969 161.05639648 C39.23283992 165.93633446 41.68955116 170.45469435 44.15917969 175.05639648 C47.96692658 182.21839943 51.66902373 189.42123967 55.15917969 196.74389648 C55.59697754 197.61820313 56.03477539 198.49250977 56.48583984 199.39331055 C59.58159783 206.02369354 60.41003842 212.01487253 59.53417969 219.30639648 C57.20569721 224.41114652 54.71551188 226.34096633 49.53417969 228.30639648 C45.59916275 228.69387771 41.6986362 228.61107253 37.74902344 228.52124023 C36.61517715 228.50428604 35.48133087 228.48733185 34.31312561 228.46986389 C31.92174063 228.42943902 29.53047885 228.38104123 27.1394043 228.32519531 C23.4812214 228.24410799 19.8238695 228.20047564 16.16503906 228.15991211 C13.83882329 228.11595249 11.51264767 228.06980261 9.18652344 228.02124023 C7.54731178 228.00528053 7.54731178 228.00528053 5.87498474 227.98899841 C-1.68839836 227.77126743 -1.68839836 227.77126743 -5.5847168 225.44140625 C-11.42302699 218.81505678 -11.61584446 211.40909552 -11.60626221 202.96327209 C-11.60923333 202.13820693 -11.61220445 201.31314176 -11.61526561 200.46307462 C-11.62391705 197.7064925 -11.62545782 194.94995398 -11.62695312 192.19335938 C-11.63158368 190.21370858 -11.63660866 188.23405867 -11.64199829 186.25440979 C-11.65509824 180.88256591 -11.66156213 175.51073451 -11.66600895 170.13887715 C-11.66894254 166.78222883 -11.67304781 163.42558391 -11.67751312 160.0689373 C-11.69117946 149.56482111 -11.7008513 139.0607127 -11.70471501 128.55658823 C-11.70919886 116.43381063 -11.72676556 104.3111456 -11.75571561 92.18840224 C-11.77732496 82.81414943 -11.78741884 73.43992833 -11.78875613 64.06565088 C-11.78980435 58.46795377 -11.79571641 52.87036261 -11.81357574 47.27269173 C-11.83004425 42.0088986 -11.83221782 36.74529125 -11.82343674 31.48148155 C-11.82266581 29.55095548 -11.8270164 27.62041947 -11.83689499 25.68991852 C-11.84960147 23.0518926 -11.84374489 20.41452601 -11.83331299 17.77650452 C-11.84136939 17.01501557 -11.8494258 16.25352662 -11.85772634 15.46896225 C-11.77667479 6.68858358 -9.65698917 0.0853932 0 0 Z M5.53417969 46.30639648 C6.53417969 48.30639648 6.53417969 48.30639648 6.53417969 48.30639648 Z " fill="#FFFFFF" transform="translate(217.4658203125,751.693603515625)"/>
<path d="M0 0 C1.35929496 -0.00079228 2.71858968 -0.00289385 4.07788086 -0.00619507 C7.7426974 -0.01129551 11.40722953 0.00213424 15.0720005 0.01933193 C18.91253561 0.03443645 22.75306809 0.03319535 26.59362793 0.03399658 C33.03251975 0.03767888 39.47130429 0.05260116 45.91015625 0.07519531 C54.18393534 0.1041685 62.45762863 0.11442932 70.73145294 0.11887741 C77.84513592 0.12284986 84.95880014 0.13534431 92.07246971 0.14922428 C94.36114332 0.15332698 96.64981625 0.15625047 98.93849182 0.15901947 C102.52378916 0.16389885 106.10903398 0.17407895 109.69430542 0.18845749 C111.64421753 0.19516364 113.59414449 0.19698722 115.54406738 0.19869995 C117.26834961 0.20726517 117.26834961 0.20726517 119.02746582 0.21600342 C120.03251411 0.21897808 121.03756241 0.22195274 122.07306671 0.22501755 C124.32617188 0.35644531 124.32617188 0.35644531 125.32617188 1.35644531 C125.45472709 3.12243249 125.5146251 4.89346095 125.54736328 6.66381836 C125.57053619 7.79977951 125.59370911 8.93574066 125.61758423 10.10612488 C125.63743378 11.34759781 125.65728333 12.58907074 125.67773438 13.86816406 C125.71246353 15.78058647 125.71246353 15.78058647 125.74789429 17.73164368 C125.79647971 20.4445048 125.84135414 23.15739726 125.88378906 25.87036133 C125.93791703 29.30723621 126.00190221 32.74384003 126.068964 36.18048382 C126.13197661 39.49294892 126.1855828 42.8055505 126.24023438 46.11816406 C126.27608139 47.94090096 126.27608139 47.94090096 126.31265259 49.80046082 C126.63234694 72.10586948 126.63234694 72.10586948 123.96646118 76.69926453 C121.57962942 79.11067556 119.6581124 79.22044774 116.32617188 79.35644531 C114.07617188 78.85644531 114.07617188 78.85644531 112.32617188 77.35644531 C111.07617188 73.73144531 111.07617188 73.73144531 110.32617188 70.35644531 C109.66617187 70.35644531 109.00617188 70.35644531 108.32617188 70.35644531 C106.88085938 68.88769531 106.88085938 68.88769531 105.20117188 66.85644531 C104.57082031 66.12554688 103.94046875 65.39464844 103.29101562 64.64160156 C102.04814982 63.19612145 100.81047556 61.74614699 99.58007812 60.29003906 C89.13353419 48.81007358 73.29378567 44.22932296 58.20800781 43.21386719 C40.14189022 42.40727059 24.06869714 47.08051366 10.32617188 59.35644531 C5.40023083 64.36421262 1.18874293 69.49098494 -2.67382812 75.35644531 C-1.66952759 75.34534225 -0.66522705 75.3342392 0.36950684 75.32279968 C9.90048245 75.22080976 19.43134529 75.14618842 28.96274567 75.09738445 C33.86130266 75.07144899 38.75941415 75.03634979 43.65771484 74.97924805 C48.39752998 74.92434865 53.13692052 74.8949046 57.87702942 74.8820591 C59.67249727 74.87292192 61.46794566 74.85508385 63.26322937 74.82779503 C79.28542966 74.59425706 96.79088084 76.77496664 109.22460938 88.08300781 C112.33912145 91.53176021 114.35080804 95.14806148 116.32617188 99.35644531 C117.12956025 100.59158663 117.9429174 101.820275 118.76367188 103.04394531 C125.31465845 113.62097093 125.92651335 123.75266739 125.85742188 135.85253906 C125.86012352 137.53443119 125.8640115 139.21632178 125.86901855 140.89820862 C125.87488369 144.40730801 125.86644907 147.91599747 125.84765625 151.42504883 C125.82488594 155.89107949 125.83799628 160.35614728 125.86194611 164.8221426 C125.87650066 168.29090946 125.87175396 171.75945351 125.86143494 175.22822762 C125.8587933 176.8734251 125.86194562 178.51864375 125.87135315 180.16381645 C125.94362783 196.35242157 122.65501147 207.94696 111.67382812 220.20019531 C101.88137968 229.58562267 89.56517938 230.06540035 76.81835938 229.87988281 C75.10855772 229.87339303 73.39874671 229.86906224 71.68893433 229.86672974 C67.13244288 229.85409638 62.57676158 229.81023878 58.02055359 229.75967407 C53.30123469 229.71242239 48.58179272 229.69375257 43.86230469 229.67089844 C32.68305882 229.60953386 21.50472403 229.49336289 10.32617188 229.35644531 C9.49985764 229.34637955 8.6735434 229.33631378 7.82218933 229.32594299 C-10.67839168 229.09796846 -29.17665308 228.78187581 -47.67382812 228.35644531 C-48.4183863 222.41221959 -48.80901273 216.65721198 -48.74316406 210.67138672 C-48.7383754 209.85559143 -48.73358673 209.03979614 -48.72865295 208.19927979 C-48.71114108 205.53543759 -48.68536124 202.87176805 -48.65820312 200.20800781 C-48.64148978 198.34475753 -48.62482801 196.48150679 -48.60821533 194.61825562 C-48.57189969 190.72998735 -48.53069186 186.84180312 -48.48681641 182.95361328 C-48.43155122 177.96687473 -48.39517248 172.98018457 -48.36318588 167.99324989 C-48.33537487 164.15334357 -48.29432997 160.31366177 -48.24958038 156.47391891 C-48.23037427 154.63432609 -48.21608383 152.79467519 -48.20677948 150.95500565 C-48.19249501 148.39133776 -48.1596262 145.82855453 -48.12207031 143.26513672 C-48.12193436 142.50459991 -48.1217984 141.74406311 -48.12165833 140.96047974 C-48.01971542 135.87251182 -48.01971542 135.87251182 -46.34503174 133.37387085 C-43.81819906 131.83553998 -41.55723668 132.16421808 -38.67382812 132.35644531 C-38.12855469 133.46761719 -37.58328125 134.57878906 -37.02148438 135.72363281 C-28.08842782 153.52964463 -16.23923276 165.49597962 2.58349609 172.58935547 C16.40240921 177.0473859 34.07006588 177.66452334 47.32617188 171.35644531 C48.39480469 170.88078125 49.4634375 170.40511719 50.56445312 169.91503906 C62.78633859 163.95489515 71.24631802 155.08717762 79.32617188 144.35644531 C78.03445068 144.36168213 76.74272949 144.36691895 75.41186523 144.37231445 C32.12004891 144.53188835 32.12004891 144.53188835 13.51367188 143.98144531 C11.71627563 143.93515991 11.71627563 143.93515991 9.88256836 143.88793945 C-7.18456684 143.29644929 -24.38795753 139.05292951 -36.63085938 126.32128906 C-49.45182763 110.03670411 -48.56596967 89.79691894 -48.31896973 70.21026611 C-48.2920513 67.3150667 -48.30246967 64.42049232 -48.3132267 61.52522564 C-48.31997232 58.69287306 -48.30652765 55.86088699 -48.28696823 53.02860451 C-48.27577593 51.06090446 -48.27810412 49.09314186 -48.28091431 47.12541199 C-48.08552861 34.59869089 -45.21787133 21.75147264 -36.66601562 12.15722656 C-25.9087547 2.43350639 -13.99626686 -0.10264647 0 0 Z " fill="#FFFFFF" transform="translate(1450.673828125,751.6435546875)"/>
<path d="M0 0 C1.14003479 0.00067978 1.14003479 0.00067978 2.30310059 0.00137329 C3.49818993 -0.00366463 3.49818993 -0.00366463 4.71742249 -0.00880432 C7.36456845 -0.01834301 10.01165137 -0.02025889 12.65881348 -0.02133179 C14.49105354 -0.02454233 16.32329333 -0.02790624 18.15553284 -0.03141785 C22.00160314 -0.03741642 25.84765094 -0.039257 29.69372559 -0.03866577 C34.63157697 -0.0385641 39.5692847 -0.05221771 44.50710201 -0.06943798 C48.29281787 -0.08053507 52.07849874 -0.08258569 55.8642292 -0.08205605 C57.68516091 -0.08323958 59.50609342 -0.08768208 61.3270092 -0.09538841 C63.8699244 -0.10514232 66.4125245 -0.10232863 68.95544434 -0.09628296 C69.7134433 -0.10190247 70.47144226 -0.10752197 71.25241089 -0.11331177 C76.46565415 -0.08167861 76.46565415 -0.08167861 78.69396973 2.14663696 C79.44396973 5.33413696 79.44396973 5.33413696 78.69396973 9.14663696 C76.56129491 11.1406401 74.26592894 12.58967565 71.80334473 14.15835571 C60.2499143 21.54616487 51.12003365 30.37753039 42.69396973 41.14663696 C41.58408691 42.55429321 41.58408691 42.55429321 40.45178223 43.99038696 C35.16544655 50.9839828 30.87499798 58.46541596 26.69396973 66.14663696 C26.16932129 67.05413696 25.64467285 67.96163696 25.10412598 68.89663696 C10.73615446 95.1172322 7.2224467 127.76264318 14.38146973 156.52163696 C16.6138854 163.82400766 19.6073933 168.59088418 26.12365723 172.66616821 C39.7646055 179.85979899 54.45486662 179.94712398 69.02209473 175.52163696 C81.24420604 170.94484634 92.3070143 163.7320498 102.57183838 155.73168945 C104.69396973 154.14663696 104.69396973 154.14663696 106.7963562 152.93731689 C110.75008159 150.31376273 112.45768501 148.2861713 113.43537903 143.57102966 C113.83286268 138.91134929 113.76010687 134.25221764 113.70568848 129.58023071 C113.71398708 127.80241573 113.72567465 126.02461376 113.74052429 124.24684143 C113.76932528 119.51145735 113.7480687 114.77764449 113.71282196 110.04235077 C113.68807166 106.24069087 113.68538079 102.43915936 113.68292427 98.63743019 C113.67643265 90.03293262 113.64058396 81.42869268 113.58654785 72.82437134 C113.58062685 71.8705488 113.57470585 70.91672626 113.56860542 69.93400002 C113.53663712 65.0414699 113.49710054 60.14912485 113.44714355 55.25674438 C113.39819878 50.38656369 113.36953657 45.51660278 113.35339928 40.64620781 C113.34366617 38.83204072 113.32671863 37.01789409 113.30161476 35.20387459 C113.14180438 23.44903016 113.89382161 12.36596787 117.69396973 1.14663696 C120.65804532 -0.33540083 123.31476138 0.0274287 126.62219238 0.03311157 C127.69064644 0.03289253 127.69064644 0.03289253 128.78068542 0.03266907 C131.13983179 0.03336686 133.49889962 0.041153 135.85803223 0.04898071 C137.49185137 0.05084537 139.12567107 0.05226905 140.75949097 0.05326843 C145.06345153 0.05708987 149.36737844 0.06691699 153.67132568 0.07797241 C158.06168157 0.08819455 162.45204288 0.09276778 166.84240723 0.09780884 C175.45961018 0.10853957 184.07678577 0.12561153 192.69396973 0.14663696 C193.98117567 2.72104884 193.82275272 4.55889161 193.8276825 7.44256592 C193.83407997 9.1284935 193.83407997 9.1284935 193.84060669 10.84848022 C193.8401535 12.08785339 193.83970032 13.32722656 193.8392334 14.60415649 C193.84259201 15.90523346 193.84595062 17.20631042 193.84941101 18.54681396 C193.85826834 22.12617276 193.86059016 25.70550766 193.8612268 29.28487635 C193.86193758 31.52662943 193.86407269 33.76837645 193.86672401 36.01012802 C193.87599084 43.84811538 193.88005819 51.68608571 193.87927246 59.52407837 C193.87867483 66.7981178 193.88916098 74.07208231 193.90501612 81.34610283 C193.91817367 87.60876533 193.92345278 93.87140364 193.92281705 100.13407981 C193.92256399 103.86589361 193.9253063 107.59764118 193.9359951 111.32944107 C194.01444299 140.72954985 194.01444299 140.72954985 191.69396973 154.14663696 C191.47966028 155.65824706 191.26598981 157.16994808 191.05334473 158.68179321 C187.70135163 178.08467634 178.78897324 196.96019711 163.69396973 210.14663696 C163.03396973 210.14663696 162.37396973 210.14663696 161.69396973 210.14663696 C161.69396973 210.80663696 161.69396973 211.46663696 161.69396973 212.14663696 C150.62956387 221.49252872 134.60971635 229.42896154 119.88146973 229.20913696 C119.09127441 229.20011353 118.3010791 229.19109009 117.48693848 229.18179321 C116.59941895 229.16439087 116.59941895 229.16439087 115.69396973 229.14663696 C114.43578535 222.01692547 114.98248707 215.32713881 115.69396973 208.14663696 C110.5771705 209.63370674 106.30279537 211.93223167 101.69396973 214.52163696 C85.00232813 223.64104381 64.13538803 227.601784 45.30725098 223.31069946 C30.94299625 218.83781763 19.37830614 210.48865259 9.69396973 199.14663696 C9.69396973 198.48663696 9.69396973 197.82663696 9.69396973 197.14663696 C9.03396973 197.14663696 8.37396973 197.14663696 7.69396973 197.14663696 C5.7422453 194.67869557 4.27021143 191.86489401 2.69396973 189.14663696 C2.21572754 188.36030884 1.73748535 187.57398071 1.24475098 186.76382446 C-2.02360369 181.15357787 -4.45533315 175.43638802 -6.61853027 169.33413696 C-6.87303955 168.61685425 -7.12754883 167.89957153 -7.38977051 167.16055298 C-10.12580229 159.16299327 -10.5630209 151.42986252 -10.91149902 143.04702759 C-10.94888184 142.23298462 -10.98626465 141.41894165 -11.02478027 140.58023071 C-11.05507324 139.84860718 -11.08536621 139.11698364 -11.11657715 138.3631897 C-11.2553096 136.13380049 -11.2553096 136.13380049 -11.80879211 133.949646 C-12.39995615 130.61716215 -12.44095511 127.46749168 -12.45129395 124.0819397 C-12.45465256 123.38801117 -12.45801117 122.69408264 -12.46147156 121.97912598 C-12.47097483 119.67947588 -12.47292737 117.37989927 -12.47399902 115.08023071 C-12.47722261 113.44726026 -12.48058745 111.81429008 -12.48408508 110.18132019 C-12.49008225 106.73721658 -12.49192543 103.29313801 -12.49133301 99.84902954 C-12.49125319 96.39454749 -12.49795449 92.94020213 -12.51184082 89.48574829 C-12.6062841 65.64124048 -12.02343151 41.93395875 -10.30603027 18.14663696 C-10.22815277 17.05189056 -10.15027527 15.95714417 -10.07003784 14.82922363 C-9.99218048 13.85043243 -9.91432312 12.87164124 -9.83410645 11.8631897 C-9.76817795 11.03012802 -9.70224945 10.19706635 -9.63432312 9.33876038 C-8.60480315 2.46430406 -6.54507414 0.04054738 0 0 Z " fill="#FFFFFF" transform="translate(680.3060302734375,751.8533630371094)"/>
<path d="M0 0 C1.03936707 -0.01007584 1.03936707 -0.01007584 2.09973145 -0.02035522 C4.39761472 -0.03940003 6.6952067 -0.04326318 8.99316406 -0.04541016 C10.59019085 -0.05183563 12.18721644 -0.0585638 13.78424072 -0.06558228 C17.13678718 -0.07757267 20.48923048 -0.0812615 23.84179688 -0.08007812 C28.13037962 -0.0798753 32.41829696 -0.10713135 36.70672226 -0.14162254 C40.00794487 -0.1639066 43.30900804 -0.16791515 46.61029816 -0.16685867 C48.19069961 -0.16921414 49.77110549 -0.17803471 51.3514328 -0.19352341 C53.56808855 -0.21320678 55.78331938 -0.2073368 58 -0.1953125 C59.25971619 -0.19816254 60.51943237 -0.20101257 61.81732178 -0.20394897 C67.03109257 0.54517516 70.13966753 2.83524383 73.31347656 6.96240234 C73.91417969 7.97818359 74.51488281 8.99396484 75.13378906 10.04052734 C75.46765625 10.60344482 75.80152344 11.1663623 76.14550781 11.74633789 C79.74775159 17.92968378 82.89731448 24.33966829 86.0234375 30.77319336 C87.26697926 33.3072169 88.52914048 35.83151845 89.79510498 38.35440063 C95.08571579 48.89852697 100.28290892 59.48800467 105.46923828 70.08374023 C107.01851471 73.24789043 108.57026871 76.41081809 110.12207031 79.57373047 C111.12091975 81.61336982 112.11962291 83.6530808 113.11816406 85.69287109 C113.57551941 86.62429428 114.03287476 87.55571747 114.50408936 88.5153656 C116.88763054 93.39189855 119.18899937 98.29008387 121.36157227 103.26443481 C122.99662158 106.95669873 124.76385664 110.58678094 126.50878906 114.22802734 C129.46940793 120.44191975 132.35806351 126.67937551 135.13378906 132.97802734 C145.17198888 157.77601174 145.17198888 157.77601174 158.14111328 180.99829102 C160.30368264 184.36032097 161.88357269 187.66210268 163.45800781 191.33349609 C163.73852493 191.98377274 164.01904205 192.63404938 164.30805969 193.30403137 C165.19305117 195.35968523 166.06963015 197.41880843 166.94628906 199.47802734 C167.54537996 200.8708286 168.14498484 202.26340889 168.74511719 203.65576172 C174.72945162 217.58358583 174.72945162 217.58358583 174.25878906 224.29052734 C173.12271118 226.4828186 173.12271118 226.4828186 171.25878906 228.29052734 C168.52890015 228.78500366 168.52890015 228.78500366 165.18603516 228.77636719 C163.3079567 228.78559708 163.3079567 228.78559708 161.39193726 228.79501343 C160.02202634 228.78120796 158.65212262 228.76667328 157.28222656 228.75146484 C155.87318083 228.74907879 154.46413188 228.74817544 153.05508423 228.74868774 C150.097556 228.74555775 147.14051182 228.72898949 144.18310547 228.70214844 C140.41401156 228.66835489 136.64545405 228.66051462 132.87622643 228.6620388 C129.96260565 228.6614913 127.04909946 228.6504607 124.13551712 228.63603592 C122.74742117 228.62971935 121.35931237 228.62574122 119.97120285 228.6242485 C100.98402072 228.58151499 100.98402072 228.58151499 96.45541382 224.77450562 C90.49912925 218.4241145 87.64293049 209.89861716 84.23852539 202.03515625 C79.73619771 191.70305623 74.77193894 181.58333333 69.88134766 171.43115234 C64.29843096 159.83842459 58.82306585 148.21459425 53.57519531 136.46630859 C45.29394463 117.83895826 45.29394463 117.83895826 36.32128906 99.54052734 C31.82193522 90.8174364 28.09202191 81.73979039 24.29418945 72.69580078 C23.80039795 71.52436523 23.30660645 70.35292969 22.79785156 69.14599609 C22.35650879 68.09049561 21.91516602 67.03499512 21.46044922 65.94750977 C20.28075171 63.1473838 20.28075171 63.1473838 18.25878906 60.29052734 C6.75605707 79.32953202 9.15317087 107.23506314 13.86523438 127.95751953 C18.45992927 146.12275258 25.72433702 164.72371937 36.44628906 180.16552734 C37.16812378 181.20978882 37.16812378 181.20978882 37.90454102 182.27514648 C41.35211841 187.18164259 45.03812884 191.7159076 49.16894531 196.07177734 C51.25878906 198.29052734 51.25878906 198.29052734 53.06738281 200.50927734 C56.10956382 204.2253178 59.13682933 207.29257496 63.09472656 210.01708984 C63.77841309 210.48832275 64.46209961 210.95955566 65.16650391 211.44506836 C66.5375273 212.36766952 67.92579798 213.26525299 69.33154297 214.1340332 C74.05276456 217.28290978 74.05276456 217.28290978 74.69238281 220.41113281 C74.69628906 222.63037109 74.69628906 222.63037109 74.25878906 226.29052734 C69.24395038 228.7190305 65.01194336 229.79046374 59.41503906 229.97021484 C58.68055542 230.003237 57.94607178 230.03625916 57.18933105 230.07028198 C49.7814505 230.37420462 42.36985138 230.44231942 34.95654297 230.42089844 C32.7590445 230.41552797 30.56175028 230.42089637 28.36425781 230.42724609 C23.99451839 230.43100809 19.62761739 230.37712668 15.25878906 230.29052734 C14.09259033 230.27064758 14.09259033 230.27064758 12.90283203 230.25036621 C10.57220034 230.20080625 8.24447452 230.12150034 5.91503906 230.03271484 C4.85053528 230.01230637 4.85053528 230.01230637 3.76452637 229.9914856 C0.40562442 229.83122486 -1.46301429 229.50457234 -4.15722656 227.43164062 C-7.1478746 223.38910312 -7.10879163 219.02066052 -7.45996094 214.17724609 C-7.52253586 213.32881134 -7.58511078 212.48037659 -7.64958191 211.60623169 C-7.85542227 208.73068818 -8.05023968 205.8545959 -8.24121094 202.97802734 C-8.30813141 201.97621429 -8.37505188 200.97440125 -8.44400024 199.94223022 C-9.7579282 179.67197909 -10.17360892 159.40825786 -10.42871094 139.10302734 C-10.43816742 138.36297329 -10.4476239 137.62291924 -10.45736694 136.8604393 C-10.82336309 107.86497368 -10.85166343 78.87998533 -10.36889648 49.88525391 C-10.31396778 46.54015743 -10.2631678 43.19505255 -10.21449375 39.84986305 C-10.16575813 36.57221441 -10.11134379 33.29465988 -10.05761719 30.01708984 C-10.04090469 28.84288483 -10.0241922 27.66867981 -10.00697327 26.45889282 C-9.90150747 20.48459237 -9.69221406 14.5231151 -9.34643555 8.55761719 C-9.27968124 7.40530609 -9.21292694 6.252995 -9.14414978 5.06576538 C-8.31595575 -0.63841431 -4.98421473 0.03024005 0 0 Z " fill="#FFFFFF" transform="translate(1782.7412109375,751.70947265625)"/>
<path d="M0 0 C2.89556885 -0.39440918 2.89556885 -0.39440918 6.64941406 -0.41992188 C7.33257187 -0.42839142 8.01572968 -0.43686096 8.71958923 -0.44558716 C10.98512241 -0.46904412 13.24997939 -0.46997695 15.515625 -0.46875 C17.09023308 -0.47584913 18.66483857 -0.48354776 20.23944092 -0.49182129 C23.5449542 -0.50528799 26.85022863 -0.50682638 30.15576172 -0.50097656 C34.38399495 -0.49509458 38.6110743 -0.52559783 42.83908463 -0.56609344 C46.09401583 -0.59200296 49.34867099 -0.59484467 52.6036911 -0.59120178 C54.16176999 -0.59289169 55.71986181 -0.60252191 57.27783966 -0.62034607 C59.46366759 -0.6425902 61.64718489 -0.63280861 63.83300781 -0.61523438 C65.07495911 -0.61728882 66.3169104 -0.61934326 67.59649658 -0.62145996 C72.5927489 0.2908267 75.2079795 2.8508359 78.45776367 6.74829102 C81.99087687 12.59745311 84.73912949 18.77193937 87.47601318 25.02630615 C88.89756525 28.27424922 90.33897938 31.5133829 91.77734375 34.75390625 C92.05825867 35.38828613 92.33917358 36.02266602 92.62860107 36.67626953 C95.68237784 43.56319462 98.8912197 50.37180557 102.13232422 57.171875 C103.58454219 60.23158468 105.00976022 63.30381289 106.4375 66.375 C109.13921907 72.17979178 111.87810431 77.96646601 114.625 83.75 C117.36551479 89.52201747 120.06852055 95.30619444 122.69140625 101.1328125 C124.42791279 104.93757609 126.21443917 108.71806299 128 112.5 C133.4765387 124.11096919 138.71157167 135.82348078 143.91650391 147.55810547 C145.77560232 151.74798882 147.6379869 155.93641136 149.5 160.125 C150.17709778 161.64843108 150.85418249 163.17186797 151.53125 164.6953125 C152.0159375 165.78585937 152.500625 166.87640625 153 168 C155.93085067 162.54382516 157.92032926 157.55262736 159.1875 151.5 C159.35258057 150.71520264 159.51766113 149.93040527 159.68774414 149.12182617 C164.24254782 126.32943237 160.48389463 104.73028857 153 83 C152.64615234 81.93144775 152.64615234 81.93144775 152.28515625 80.84130859 C148.73426019 70.16103577 143.83996261 60.60498149 138 51 C137.49726562 50.15953125 136.99453125 49.3190625 136.4765625 48.453125 C131.55428998 40.6571558 125.28204289 33.14599136 118.6640625 26.73828125 C117 25 117 25 117 23 C116.4534375 22.76152344 115.906875 22.52304687 115.34375 22.27734375 C112.41837853 20.6830163 110.05461667 18.6995351 107.5 16.5625 C103.70100887 13.36466377 103.70100887 13.36466377 99.671875 10.4765625 C98 9 98 9 97.609375 6.95703125 C97.73958333 4.97135417 97.86979167 2.98567708 98 1 C100.95977584 -0.47988792 103.95978009 -0.13010399 107.20361328 -0.11352539 C107.9451767 -0.11367142 108.68674011 -0.11381744 109.45077515 -0.1139679 C111.90731713 -0.11327 114.36378373 -0.10548334 116.8203125 -0.09765625 C118.5213924 -0.09579163 120.22247284 -0.09436794 121.92355347 -0.09336853 C126.40506467 -0.08954678 130.88654357 -0.0797194 135.36804199 -0.06866455 C139.9393673 -0.05844308 144.51069781 -0.05386933 149.08203125 -0.04882812 C158.05470171 -0.03809685 167.02734817 -0.02102451 176 0 C178.30375122 4.39678853 179.42046075 7.57510338 179.6953125 12.55078125 C179.77136719 13.80826172 179.84742188 15.06574219 179.92578125 16.36132812 C179.99152344 17.66521484 180.05726563 18.96910156 180.125 20.3125 C180.19847656 21.57384766 180.27195312 22.83519531 180.34765625 24.13476562 C180.49438796 26.67425386 180.63422395 29.21415131 180.7666626 31.75442505 C180.90880937 34.42644919 181.07438566 37.09330962 181.25604248 39.76327515 C182.01950203 51.18028818 182.14608455 62.54867913 182.1328125 73.98828125 C182.13387281 75.99930337 182.13525937 78.01032535 182.13694763 80.02134705 C182.13972424 85.35390864 182.13540818 90.68643981 182.12877274 96.01899719 C182.124986 99.32471758 182.12293049 102.63043512 182.12130737 105.93615723 C182.10577733 132.70971997 182.01497433 159.47991358 181.5625 186.25 C181.5429425 187.4531485 181.52338501 188.656297 181.50323486 189.89590454 C181.38423539 196.93234486 181.23063867 203.96628985 181 211 C180.9754071 211.7731958 180.95081421 212.5463916 180.92547607 213.34301758 C180.53337164 224.23147953 180.53337164 224.23147953 178.86799622 226.631073 C176.12951244 228.63792095 173.99074765 228.38126304 170.62011719 228.38818359 C169.30154724 228.39764008 167.98297729 228.40709656 166.62445068 228.4168396 C165.18192242 228.4114677 163.73939688 228.40531421 162.296875 228.3984375 C160.8157741 228.40045906 159.33467416 228.40337119 157.85357666 228.40713501 C154.7465265 228.41156003 151.63973494 228.40512554 148.53271484 228.39111328 C144.56380816 228.37408065 140.59551277 228.38382324 136.62662888 228.40183067 C133.56554635 228.41271497 130.50460662 228.40919998 127.44351959 228.4014473 C125.9811928 228.39945498 124.51885277 228.40187032 123.05654144 228.40888596 C121.00317022 228.41657076 118.95076119 228.40479778 116.89746094 228.38818359 C115.73180603 228.38579681 114.56615112 228.38341003 113.36517334 228.38095093 C106.64705664 227.62043355 102.03740994 224.84590732 97.796875 219.6484375 C94.82084884 215.26203373 92.59498308 210.540047 90.31640625 205.76953125 C87.15026195 199.1586672 83.66500669 192.71027923 80.2121582 186.24584961 C77.47633905 181.06121694 75.10542918 175.89202606 72.99658203 170.42480469 C71.3089318 166.31854744 69.18385679 162.45760994 67.0625 158.5625 C63.94234818 152.80926797 61.04621509 147.02092899 58.37280273 141.04614258 C56.82408634 137.60966126 55.22889949 134.19609133 53.625 130.78515625 C53.02602183 129.50847285 52.42706371 128.23178004 51.828125 126.95507812 C50.91460408 125.00895581 50.00033072 123.0632019 49.08398438 121.1184082 C45.58868079 113.69650154 42.22104081 106.24894756 39.10839844 98.65600586 C37.56646211 94.96113245 35.86364401 91.35541278 34.125 87.75 C31.48094254 82.21375142 28.96596086 76.64442787 26.5625 71 C23.17056054 63.09199129 19.14892113 55.56974431 15.07128906 47.99902344 C9.31889398 37.26506471 4.50438262 26.30255376 0 15 C-0.39058594 14.08605469 -0.78117188 13.17210937 -1.18359375 12.23046875 C-2.34350957 9.06151213 -2.24749682 6.34120708 -2 3 C-1.34 2.01 -0.68 1.02 0 0 Z " fill="#FFFFFF" transform="translate(1003,752)"/>
<path d="M0 0 C5.72616955 1.58383413 7.92389091 5.64744241 10.8125 10.5 C11.24304688 11.26699219 11.67359375 12.03398438 12.1171875 12.82421875 C13.71548918 15.44804017 15.40670678 17.91323107 17.1875 20.4140625 C21.0947022 25.94678011 24.5897527 31.68791852 28.0625 37.5 C31.81750994 43.77599817 35.58021257 49.93427262 39.9375 55.8125 C40.55496094 55.00167969 41.17242188 54.19085937 41.80859375 53.35546875 C45.97986862 47.8961281 50.17608046 42.47723107 54.5625 37.1875 C58.32305153 32.64016642 61.80691103 27.94386874 65.2109375 23.125 C73.35762793 12.21359563 90.84925002 5.86290518 103.9375 3.8125 C111.69937653 2.74729797 119.35884737 2.62907742 127.1875 2.625 C128.44046875 2.61275391 129.6934375 2.60050781 130.984375 2.58789062 C132.1909375 2.58595703 133.3975 2.58402344 134.640625 2.58203125 C135.73020508 2.57792236 136.81978516 2.57381348 137.94238281 2.56958008 C141.24523634 2.83745905 144.50731382 3.38231382 146.9375 5.8125 C147.2018527 12.95002284 144.37242167 16.19502997 139.796875 21.43359375 C136.27861156 25.49611202 133.16033472 29.84486949 130 34.1875 C124.4202006 41.81826881 118.73714054 49.34761613 112.9375 56.8125 C107.44711263 63.89276789 102.03594721 71.01323045 96.7890625 78.27734375 C93.92842505 82.19412371 90.94050347 86.00438601 87.9375 89.8125 C86.51622223 91.61902298 85.09551292 93.42599145 83.67504883 95.2331543 C82.70289972 96.46952118 81.73010791 97.70538304 80.7565918 98.94067383 C79.48021167 100.56198456 78.20867077 102.18710171 76.9375 103.8125 C76.29296875 104.48667969 75.6484375 105.16085937 74.984375 105.85546875 C73.67423408 107.83325881 73.67423408 107.83325881 74.33984375 110.41015625 C77.09954745 116.28717807 80.76265195 121.60960259 84.32617188 127.02539062 C87.50883222 132.00119967 89.92977635 135.81894424 89.9375 141.8125 C87.73367511 146.31197581 84.70346981 148.91228624 80.9140625 151.9921875 C78.53389474 154.1841997 76.62784508 156.5842884 74.625 159.125 C70.77720705 163.97282175 66.60841569 168.02235127 61.90625 172.03515625 C59.85856706 173.66684462 59.85856706 173.66684462 58.9375 175.8125 C58.2775 175.8125 57.6175 175.8125 56.9375 175.8125 C56.5971875 176.92625 56.5971875 176.92625 56.25 178.0625 C54.6201871 181.47734607 53.1808625 182.8664825 49.9375 184.8125 C46.5625 185.625 46.5625 185.625 42.9375 184.8125 C37.64767469 179.88437214 34.20592258 173.18366475 30.9375 166.8125 C26.87353238 168.16715587 25.4988313 170.91412823 23.1875 174.3125 C22.28920433 175.60256912 21.38946355 176.89163319 20.48828125 178.1796875 C20.05080566 178.80713867 19.61333008 179.43458984 19.16259766 180.08105469 C17.1126282 182.97830128 14.91672242 185.75301779 12.71484375 188.53515625 C10.57302377 191.2795102 8.50884268 194.07711553 6.4375 196.875 C3.30614489 201.06963358 0.05892085 205.05305212 -3.44140625 208.94140625 C-5.13285237 210.8937019 -6.66225387 212.91588506 -8.1875 215 C-10.57426958 218.2432357 -13.17540937 220.99582622 -16.0625 223.8125 C-17.89947493 225.90505405 -19.71115678 228.0166805 -21.51171875 230.140625 C-23.55503416 232.343494 -24.55464692 232.78675467 -27.56738281 232.93948364 C-28.62280273 232.94027924 -29.67822266 232.94107483 -30.765625 232.94189453 C-31.96026367 232.94504669 -33.15490234 232.94819885 -34.38574219 232.95144653 C-35.68157227 232.9494223 -36.97740234 232.94739807 -38.3125 232.9453125 C-39.65006528 232.94598589 -40.98763045 232.94695621 -42.32519531 232.94821167 C-45.12956913 232.94968698 -47.93391112 232.94753943 -50.73828125 232.94287109 C-54.3364719 232.93717389 -57.93458797 232.94045378 -61.53277588 232.94644356 C-64.29509037 232.95005366 -67.05738713 232.94890851 -69.81970215 232.94631577 C-71.79288786 232.94532237 -73.76607426 232.9483642 -75.73925781 232.95144653 C-76.93389648 232.94829437 -78.12853516 232.94514221 -79.359375 232.94189453 C-80.41479492 232.94109894 -81.47021484 232.94030334 -82.55761719 232.93948364 C-85.0625 232.8125 -85.0625 232.8125 -87.0625 231.8125 C-87.6774003 228.61501844 -87.82699925 226.93379949 -87.0625 223.8125 C-85.36769649 221.38440402 -83.51362552 219.20906728 -81.53369141 217.01074219 C-77.4156503 212.39298692 -73.98716803 207.45986758 -70.5625 202.3125 C-66.10824875 195.66210525 -61.47053469 189.4827731 -56.24609375 183.4140625 C-53.63396804 180.30194135 -51.36945702 177.0331501 -49.08203125 173.6796875 C-44.84728992 167.66750155 -40.28386107 161.89313276 -35.79736328 156.06787109 C-32.98085573 152.406332 -30.17887454 148.73371527 -27.375 145.0625 C-23.42165197 139.89200716 -19.46520049 134.7239104 -15.5 129.5625 C-14.73558594 128.56734375 -13.97117187 127.5721875 -13.18359375 126.546875 C-11.82346491 124.79348607 -10.42238645 123.07068617 -8.97265625 121.390625 C-6.5251381 118.08722628 -5.00766387 115.86379713 -4.0625 111.8125 C-5.42629446 108.1630346 -7.63162697 105.16399576 -9.875 102 C-11.1902324 100.04871395 -12.50261457 98.09550445 -13.8125 96.140625 C-14.50859375 95.11517578 -15.2046875 94.08972656 -15.921875 93.03320312 C-19.57218819 87.54108046 -22.95870307 81.8894916 -26.375 76.25 C-31.18316317 68.33959151 -36.06473365 60.63531917 -41.75390625 53.328125 C-43.48483565 50.00060698 -43.1681088 48.35234621 -42.0625 44.8125 C-40.6796875 42.7578125 -40.6796875 42.7578125 -38.9375 40.9375 C-38.3084375 40.26332031 -37.679375 39.58914063 -37.03125 38.89453125 C-36.3815625 38.20746094 -35.731875 37.52039062 -35.0625 36.8125 C-33.84877871 35.42134912 -32.6402878 34.02561474 -31.4375 32.625 C-29.57037707 30.46186978 -27.67167501 28.42795837 -25.6328125 26.421875 C-22.24147496 22.97899737 -19.33143556 19.22606081 -16.34375 15.43359375 C-14.0625 12.8125 -14.0625 12.8125 -11.46484375 10.73828125 C-9.07981059 8.82637662 -7.7570995 7.11709053 -6.125 4.5625 C-3.47020572 0.92066682 -3.47020572 0.92066682 0 0 Z " fill="#788A8D" transform="translate(643.0625,992.1875)"/>
<path d="M0 0 C54.12 0 108.24 0 164 0 C167.6595406 7.3190812 166.23249652 18.81904224 166.421875 26.88671875 C166.44977112 28.06917679 166.47766724 29.25163483 166.50640869 30.46992493 C166.56238697 32.94970731 166.61604878 35.42954298 166.66748047 37.90942383 C166.72261438 40.43367597 166.7848202 42.9577833 166.85400391 45.48168945 C166.95467758 49.15818692 167.03434464 52.83461887 167.109375 56.51171875 C167.16070587 58.19016121 167.16070587 58.19016121 167.21307373 59.9025116 C167.31920345 66.52315373 166.60657126 71.88831098 164 78 C157.25 79.125 157.25 79.125 155 78 C154.1496582 75.93383789 154.1496582 75.93383789 153.30078125 73.22265625 C152.98238281 72.23845703 152.66398437 71.25425781 152.3359375 70.24023438 C151.99820312 69.19158203 151.66046875 68.14292969 151.3125 67.0625 C147.38473779 55.37205137 142.75668659 44.93208691 132 38 C130.62901614 37.44410232 129.24688643 36.91523477 127.85717773 36.40795898 C126.77435768 36.01023537 126.77435768 36.01023537 125.66966248 35.60447693 C125.11867386 35.40499954 124.56768524 35.20552216 124 35 C123.99668985 35.97644376 123.99337971 36.95288752 123.98996925 37.95892048 C123.90905444 61.69377728 123.81676341 85.42856893 123.71247292 109.16333485 C123.66230396 120.64118422 123.61586159 132.11902629 123.578125 143.59692383 C123.54523289 153.59847942 123.50541718 163.59997909 123.45720994 173.60147303 C123.43191725 178.89950783 123.41014419 184.19750539 123.39665604 189.49558449 C123.38386078 194.47858974 123.36183395 199.46146749 123.33261681 204.44440269 C123.32352114 206.27660624 123.31784619 208.10883033 123.31578636 209.9410553 C123.31247783 212.43621691 123.29703899 214.9310139 123.2784729 217.42610168 C123.28040763 218.15664334 123.28234237 218.88718499 123.28433573 219.63986427 C123.24325149 223.31501477 123.09667074 224.85499389 121 228 C117.53569724 229.15476759 114.84484191 229.12705974 111.18945312 229.12939453 C110.50133041 229.13114685 109.8132077 229.13289917 109.10423279 229.13470459 C106.82987953 229.13910541 104.55560405 229.13619134 102.28125 229.1328125 C100.70088689 229.13348605 99.12052389 229.1344565 97.54016113 229.13571167 C94.22809869 229.13718624 90.91606322 229.13504179 87.60400391 229.13037109 C83.35688378 229.12467395 79.10982685 229.12795423 74.86270905 229.13394356 C71.59938073 229.13755564 68.33606741 229.1364076 65.07273865 229.13381577 C63.50662732 229.13314829 61.94051464 229.13396867 60.37440491 229.13629532 C58.18641548 229.13883243 55.99852865 229.13496627 53.81054688 229.12939453 C52.56494995 229.12859894 51.31935303 229.12780334 50.03601074 229.12698364 C47 229 47 229 44 228 C43.11509469 216.9405128 42.83351502 205.95608618 42.79467773 194.86547852 C42.78507238 193.09973943 42.77506087 191.33400251 42.76467896 189.56826782 C42.73791114 184.8234537 42.71675143 180.07862991 42.69667697 175.33378339 C42.67464151 170.35702128 42.64733966 165.38028797 42.62062073 160.40354919 C42.5709291 151.00112527 42.52590411 141.59868515 42.48259836 132.19622988 C42.43302342 121.48264479 42.37818115 110.76908864 42.32291877 100.05553162 C42.20946047 78.03704809 42.10254431 56.01853688 42 34 C40.38897996 34.62748208 38.77958767 35.25914441 37.17089844 35.89257812 C35.82629547 36.41954285 35.82629547 36.41954285 34.45452881 36.95715332 C26.45574818 40.355566 21.87711592 46.86550163 18.3515625 54.546875 C15.8587421 60.91581499 13.88453975 67.4291269 12 74 C5.65059076 75.34314426 5.65059076 75.34314426 2.79974365 73.83950806 C0.44962834 71.43746816 0.48624895 70.20689626 0.45410156 66.88037109 C0.43438293 65.83432709 0.41466431 64.78828308 0.39434814 63.71054077 C0.39311951 62.57629669 0.39189087 61.44205261 0.390625 60.2734375 C0.37408875 59.09721832 0.35755249 57.92099915 0.34051514 56.70913696 C0.2918799 52.93104094 0.27069138 49.15334212 0.25 45.375 C0.22183397 42.88279172 0.19190566 40.3906027 0.16015625 37.8984375 C0.01187154 25.26501716 0 12.63484024 0 0 Z " fill="#FFFFFF" transform="translate(1592,752)"/>
<path d="M0 0 C0.96884377 -0.0076664 0.96884377 -0.0076664 1.95726013 -0.01548767 C4.09220654 -0.02938601 6.22683013 -0.02842653 8.36181641 -0.02612305 C9.84770833 -0.0300104 11.33359915 -0.03434515 12.81948853 -0.03910828 C15.93487142 -0.04657139 19.050141 -0.04627899 22.16552734 -0.04101562 C26.1525366 -0.03522661 30.13908046 -0.05213737 34.1260128 -0.0753603 C37.19557394 -0.09011411 40.26502349 -0.09096702 43.3346138 -0.08785057 C44.80418442 -0.08836315 46.27376139 -0.09358902 47.74329758 -0.10366249 C49.80182582 -0.11603948 51.85945423 -0.10922838 53.91796875 -0.09765625 C55.08806488 -0.09828568 56.25816101 -0.0989151 57.4637146 -0.0995636 C61.0030233 0.32431761 62.82397136 1.03464947 65.58837891 3.2746582 C67.94180741 7.63794012 67.8694711 11.941834 67.84234619 16.7767334 C67.84546617 17.63094014 67.84858615 18.48514688 67.85180068 19.36523867 C67.85977542 22.22639149 67.85345905 25.08733193 67.84716797 27.94848633 C67.84987806 30.00019963 67.8534391 32.05191196 67.85778809 34.10362244 C67.86691216 39.67582264 67.86336773 45.24794886 67.85702991 50.82015038 C67.85197005 56.64877905 67.85666133 62.47740135 67.85980225 68.30603027 C67.86344192 78.09457539 67.85864274 87.88309033 67.84912109 97.67163086 C67.83823656 108.99207429 67.84176213 120.31244568 67.8527739 131.63288736 C67.86184672 141.34849111 67.86313208 151.06407316 67.85789657 160.77967978 C67.85477684 166.58409398 67.85436762 172.38847432 67.86096954 178.19288635 C67.86674227 183.64952025 67.86274738 189.10606117 67.85118103 194.56268501 C67.84853406 196.56660876 67.84930016 198.57054033 67.85370636 200.57446098 C67.85916173 203.30727436 67.85232769 206.03978874 67.84234619 208.77258301 C67.84680763 209.5678164 67.85126908 210.36304978 67.85586572 211.18238115 C67.82075012 216.13042554 67.31693444 219.94110823 64.33837891 223.9621582 C54.62210736 231.24936186 36.49775437 228.45458023 25.0234375 228.31176758 C22.65927426 228.28622722 20.29496223 228.27258625 17.93066406 228.26879883 C14.253081 228.25916787 10.57796412 228.20882169 6.90087891 228.1496582 C5.74910156 228.15239746 4.59732422 228.15513672 3.41064453 228.15795898 C-4.27921804 227.97317273 -4.27921804 227.97317273 -7.21484375 226.16235352 C-12.52787228 220.44896208 -12.7090803 212.06351135 -12.6723175 204.70448303 C-12.67614305 203.87912015 -12.6799686 203.05375727 -12.68391007 202.20338339 C-12.69416947 199.45762564 -12.69026144 196.71207978 -12.6862793 193.96630859 C-12.69062965 191.98960681 -12.69581388 190.01290671 -12.70176697 188.03620911 C-12.71513262 182.68085836 -12.7157384 177.3255783 -12.71320367 171.97021413 C-12.71213242 167.49457911 -12.71702121 163.01895829 -12.72180909 158.54332632 C-12.73289562 147.98281216 -12.73334632 137.42233357 -12.72729492 126.86181641 C-12.72125354 115.9770487 -12.73357234 105.09241021 -12.75486499 94.20766455 C-12.77249166 84.85201764 -12.77848071 75.49641182 -12.77522725 66.14074892 C-12.77341613 60.55755786 -12.77603362 54.97445901 -12.78994179 49.39128304 C-12.80253298 44.14057789 -12.8005637 38.89007399 -12.7875309 33.63937187 C-12.78516849 31.71613878 -12.78788774 29.79289146 -12.79615402 27.86967468 C-12.80665156 25.23682376 -12.79849695 22.60464438 -12.7858429 19.97181702 C-12.79321718 19.21751799 -12.80059147 18.46321897 -12.80818921 17.6860624 C-12.75381852 12.27934218 -11.86547695 7.14613596 -9.41162109 2.2746582 C-5.83459254 -0.1100275 -4.24875897 0.01675277 0 0 Z " fill="#FFFFFF" transform="translate(115.41162109375,751.725341796875)"/>
<path d="M0 0 C1.64765955 3.2953191 1.14413758 6.96102409 1.14044189 10.5834198 C1.14341302 11.48265476 1.14638414 12.38188972 1.1494453 13.30837423 C1.15815904 16.33995081 1.15964281 19.37148803 1.16113281 22.40307617 C1.16575916 24.56932663 1.17078357 26.73557627 1.17617798 28.90182495 C1.18932318 34.80074842 1.19575127 40.6996605 1.20018864 46.59859633 C1.20311644 50.28220191 1.20722073 53.96580434 1.21169281 57.64940834 C1.22537441 69.16908447 1.23503736 80.68875345 1.2388947 92.20843714 C1.24337478 105.51587526 1.26091761 118.82316579 1.2898953 132.13057536 C1.31150209 142.40919843 1.32159848 152.68779257 1.32293582 162.96643811 C1.32398473 169.10857259 1.32991059 175.25061057 1.34775543 181.39272118 C1.36421831 187.17190349 1.3664002 192.9509166 1.35761642 198.73011398 C1.35684505 200.85091797 1.36120194 202.97173098 1.37107468 205.09251213 C1.38376755 207.98909737 1.37793159 210.88508096 1.36749268 213.78166199 C1.37957728 215.03888015 1.37957728 215.03888015 1.39190602 216.32149667 C1.34734316 221.613272 0.39087771 225.2671449 -2 230 C-16.12580861 230.92353622 -30.2207751 231.2163008 -44.37548828 231.24023438 C-47.91851763 231.25012144 -51.46100768 231.28134936 -55.00390625 231.3125 C-57.27082995 231.31901593 -59.53775771 231.3242719 -61.8046875 231.328125 C-63.38272659 231.3466452 -63.38272659 231.3466452 -64.99264526 231.36553955 C-65.97202057 231.36253845 -66.95139587 231.35953735 -67.96044922 231.35644531 C-69.24349442 231.36191376 -69.24349442 231.36191376 -70.55245972 231.36749268 C-73.70547421 230.89407463 -75.45902758 229.92588824 -78 228 C-78.70248222 225.50280762 -78.70248222 225.50280762 -78.80441284 222.56054688 C-78.8506567 221.48603271 -78.89690056 220.41151855 -78.94454575 219.30444336 C-78.96284565 218.21397705 -78.98114555 217.12351074 -79 216 C-79.02493656 215.03006104 -79.04987312 214.06012207 -79.07556534 213.06079102 C-79.12918736 210.05009706 -79.13526567 207.04239801 -79.12939453 204.03125 C-79.13114685 202.90094864 -79.13289917 201.77064728 -79.13470459 200.60609436 C-79.13907153 196.90404684 -79.13620177 193.20204793 -79.1328125 189.5 C-79.13348739 186.89705394 -79.13445896 184.29410795 -79.13571167 181.69116211 C-79.13752387 176.24446091 -79.13515426 170.79777334 -79.13037109 165.35107422 C-79.12495226 159.10961747 -79.12667761 152.86819352 -79.1321975 146.62673759 C-79.13733879 140.5644679 -79.13672213 134.50221239 -79.13381577 128.43994141 C-79.13315564 125.88867183 -79.13394237 123.33740139 -79.13629532 120.78613281 C-79.14471771 109.08097276 -79.12597299 97.38827984 -78.57104492 85.6940918 C-78.5345817 84.90164314 -78.49811848 84.10919449 -78.46055031 83.29273224 C-78.11159416 76.92405029 -76.97773808 70.93840151 -75.1875 64.8125 C-74.93935547 63.88115234 -74.69121094 62.94980469 -74.43554688 61.99023438 C-72.79927512 56.05718794 -70.67893297 50.53655003 -68 45 C-67.45601562 43.87335938 -66.91203125 42.74671875 -66.3515625 41.5859375 C-56.20043696 22.70759995 -39.87214126 8.0313047 -19.171875 1.5703125 C-12.73377967 -0.12026649 -6.62543747 -0.10610131 0 0 Z " fill="#FFFFFF" transform="translate(967,994)"/>
<path d="M0 0 C19.86006564 -1.07459273 35.11808243 7.30145829 50.07421875 19.72265625 C64.02534014 32.59843765 72.40107056 50.27608743 76.0625 68.625 C76.23587891 69.45128906 76.40925781 70.27757812 76.58789062 71.12890625 C78.83638408 82.31106911 79.14681809 93.47008924 79.11352539 104.84667969 C79.11324252 106.18833413 79.11340319 107.52998872 79.1139679 108.87164307 C79.11425198 112.47413728 79.1084187 116.07659744 79.10139394 119.67908382 C79.09509511 123.45868184 79.09455148 127.23828084 79.09336853 131.0178833 C79.09027432 138.15735011 79.08208695 145.2968014 79.07201904 152.43626142 C79.06079825 160.57181202 79.05533249 168.7073634 79.05032361 176.84291983 C79.03990251 193.5619556 79.02234046 210.28097581 79 227 C66.1320785 232.71960467 51.15184931 231.21888325 37.26806641 231.03271484 C34.98659291 231.00987625 32.70491827 231.00371286 30.42333984 231.01025391 C26.76037714 231.01945611 23.10015546 230.98252859 19.4375 230.9375 C18.28991211 230.94861816 17.14232422 230.95973633 15.95996094 230.97119141 C8.22857156 230.80872853 8.22857156 230.80872853 4.96533203 228.66064453 C-0.86005213 222.46952542 -1.30089067 214.33468701 -1.24723816 206.23327637 C-1.24965257 205.38679016 -1.25206699 204.54030395 -1.25455457 203.66816664 C-1.26015974 200.85096325 -1.25155259 198.03398984 -1.24291992 195.21679688 C-1.2439936 193.18921345 -1.24593355 191.16163032 -1.24867249 189.13404846 C-1.2535103 183.64032815 -1.24587823 178.14668936 -1.23571944 172.6529789 C-1.22692025 166.89784466 -1.22869676 161.14271284 -1.2290802 155.38757324 C-1.22814432 145.72370036 -1.21947087 136.05985893 -1.20581055 126.39599609 C-1.19008588 115.23064047 -1.18481251 104.06531927 -1.1855461 92.89995337 C-1.18622217 81.00255932 -1.17927748 69.10517851 -1.1700995 57.20778847 C-1.16797055 53.78414993 -1.16725864 50.36051353 -1.16686058 46.93687439 C-1.1658542 41.55244124 -1.15973339 36.16803685 -1.14969444 30.7836132 C-1.14677993 28.80997328 -1.14554195 26.83633005 -1.14612198 24.86268806 C-1.14661486 22.16400293 -1.14093557 19.46539761 -1.13371277 16.76672363 C-1.13526137 15.99005702 -1.13680997 15.21339042 -1.1384055 14.41318846 C-1.11689029 9.52851273 -0.68890635 4.83716825 0 0 Z " fill="#FFFFFF" transform="translate(795,994)"/>
<path d="M0 0 C8.71050004 -0.13950297 17.42061097 -0.24587338 26.13198757 -0.31087303 C30.1778322 -0.34208244 34.2229082 -0.38436075 38.26831055 -0.45263672 C42.17819242 -0.51820658 46.08733876 -0.55378405 49.99772835 -0.56926346 C51.48363882 -0.58028308 52.96951258 -0.60180181 54.45510674 -0.63438034 C62.46391201 -0.80290002 68.83198172 -0.61566868 75.48744202 4.31747437 C78.99149675 8.21528323 78.14033857 13.71144159 78.12698364 18.661026 C78.12932363 19.98604847 78.12932363 19.98604847 78.13171089 21.33783907 C78.13570563 24.3034493 78.13253712 27.26900851 78.12939453 30.23461914 C78.13074924 32.35839366 78.13252956 34.48216794 78.13470459 36.60594177 C78.13927039 42.37845536 78.13749292 48.15095111 78.1343255 53.92346501 C78.13179785 59.95723218 78.13414055 65.99099779 78.13571167 72.02476501 C78.13753203 82.15721919 78.13513039 92.28966607 78.13037109 102.42211914 C78.12492726 114.14757339 78.12669255 125.87301025 78.1321975 137.59846407 C78.13673066 147.65541008 78.13737822 157.71235084 78.13475883 167.76929754 C78.13319737 173.78045177 78.13299877 179.79159783 78.13629532 185.80275154 C78.13917701 191.45222223 78.13719281 197.10167043 78.13140106 202.75113869 C78.13007514 204.82846794 78.13046476 206.90579908 78.13266373 208.98312759 C78.13538172 211.81076345 78.13198607 214.63832647 78.12698364 217.46595764 C78.13032973 218.70942438 78.13032973 218.70942438 78.13374341 219.97801167 C78.12247094 223.24561383 78.04079288 225.87762137 77 229 C59.03040637 230.07340493 42.49988999 222.02763171 28.875 210.75 C17.16592967 199.97287608 8.60029869 186.20015359 4 171 C3.79246094 170.39784668 3.58492187 169.79569336 3.37109375 169.17529297 C0.01168599 159.3874185 -1.38750231 149.91852132 -1.6328125 139.58984375 C-1.66873001 138.29624435 -1.70464752 137.00264496 -1.74165344 135.66984558 C-2.31731398 112.74980649 -2.18728345 89.80896261 -2.18511242 66.8836242 C-2.18546196 61.43345948 -2.19714976 55.98335809 -2.2110464 50.53321344 C-2.22567344 44.58137633 -2.22929215 38.62956582 -2.22869301 32.67770958 C-2.22987184 30.16624276 -2.23428816 27.65477526 -2.24202538 25.14332008 C-2.25177682 21.66293535 -2.24897051 18.18278068 -2.24291992 14.70239258 C-2.24853943 13.67143967 -2.25415894 12.64048676 -2.25994873 11.57829285 C-2.25575424 10.63313812 -2.25155975 9.6879834 -2.24723816 8.71418762 C-2.24778293 7.89533994 -2.24832769 7.07649225 -2.24888897 6.232831 C-1.97419557 3.76850345 -1.23214989 2.1342423 0 0 Z " fill="#FFFFFF" transform="translate(890,752)"/>
<path d="M0 0 C0.66 0 1.32 0 2 0 C3.38874712 1.90874885 4.63932109 3.80649244 5.875 5.8125 C6.26574707 6.43415039 6.65649414 7.05580078 7.05908203 7.69628906 C7.91845333 9.06418588 8.77491593 10.43391313 9.62890625 11.80517578 C11.03317635 14.05310816 12.45198063 16.29123859 13.875 18.52734375 C16.41288489 22.51628012 18.92722647 26.51952718 21.4375 30.52587891 C23.03408246 33.05396745 24.6560969 35.5644213 26.28125 38.07421875 C27.31302187 39.6949804 28.34429055 41.31606251 29.375 42.9375 C29.86983887 43.68870117 30.36467773 44.43990234 30.87451172 45.21386719 C31.31553223 45.91543945 31.75655273 46.61701172 32.2109375 47.33984375 C32.60587402 47.95206787 33.00081055 48.56429199 33.40771484 49.19506836 C34 51 34 51 33.24536133 53.03271484 C31.3713162 55.99312567 29.36383178 58.84883845 27.3125 61.6875 C26.86334229 62.31253418 26.41418457 62.93756836 25.95141602 63.58154297 C22.97897402 67.69821304 19.92871627 71.74080438 16.77734375 75.72265625 C14.63552377 78.4670102 12.57134268 81.26461553 10.5 84.0625 C7.36864489 88.25713358 4.12142085 92.24055212 0.62109375 96.12890625 C-1.07035237 98.0812019 -2.59975387 100.10338506 -4.125 102.1875 C-6.51176958 105.4307357 -9.11290937 108.18332622 -12 111 C-13.83697493 113.09255405 -15.64865678 115.2041805 -17.44921875 117.328125 C-19.49253416 119.530994 -20.49214692 119.97425467 -23.50488281 120.12698364 C-24.56030273 120.12777924 -25.61572266 120.12857483 -26.703125 120.12939453 C-27.89776367 120.13254669 -29.09240234 120.13569885 -30.32324219 120.13894653 C-31.61907227 120.1369223 -32.91490234 120.13489807 -34.25 120.1328125 C-35.58756528 120.13348589 -36.92513045 120.13445621 -38.26269531 120.13571167 C-41.06706913 120.13718698 -43.87141112 120.13503943 -46.67578125 120.13037109 C-50.2739719 120.12467389 -53.87208797 120.12795378 -57.47027588 120.13394356 C-60.23259037 120.13755366 -62.99488713 120.13640851 -65.75720215 120.13381577 C-67.73038786 120.13282237 -69.70357426 120.1358642 -71.67675781 120.13894653 C-72.87139648 120.13579437 -74.06603516 120.13264221 -75.296875 120.12939453 C-76.35229492 120.12859894 -77.40771484 120.12780334 -78.49511719 120.12698364 C-81 120 -81 120 -83 119 C-83.6149003 115.80251844 -83.76449925 114.12129949 -83 111 C-81.30519649 108.57190402 -79.45112552 106.39656728 -77.47119141 104.19824219 C-73.3531503 99.58048692 -69.92466803 94.64736758 -66.5 89.5 C-62.04574875 82.84960525 -57.40803469 76.6702731 -52.18359375 70.6015625 C-49.57146804 67.48944135 -47.30695702 64.2206501 -45.01953125 60.8671875 C-40.78478992 54.85500155 -36.22136107 49.08063276 -31.73486328 43.25537109 C-28.91835573 39.593832 -26.11637454 35.92121527 -23.3125 32.25 C-19.35915197 27.07950716 -15.40270049 21.9114104 -11.4375 16.75 C-10.67308594 15.75484375 -9.90867187 14.7596875 -9.12109375 13.734375 C-7.71429069 11.92081673 -6.28460338 10.12476701 -4.83203125 8.34765625 C-2.7810518 5.71942885 -1.402853 3.01613395 0 0 Z " fill="#FEFEFE" transform="translate(639,1105)"/>
<path d="M0 0 C1.25296875 -0.01224609 2.5059375 -0.02449219 3.796875 -0.03710938 C5.0034375 -0.03904297 6.21 -0.04097656 7.453125 -0.04296875 C8.54270508 -0.04707764 9.63228516 -0.05118652 10.75488281 -0.05541992 C14.05773634 0.21245905 17.31981382 0.75731382 19.75 3.1875 C20.0143527 10.32502284 17.18492167 13.57002997 12.609375 18.80859375 C9.09111156 22.87111202 5.97283472 27.21986949 2.8125 31.5625 C-2.7672994 39.19326881 -8.45035946 46.72261613 -14.25 54.1875 C-19.74038737 61.26776789 -25.15155279 68.38823045 -30.3984375 75.65234375 C-33.25920697 79.56930448 -36.2513128 83.3758092 -39.25 87.1875 C-40.15288947 88.35244183 -41.05518789 89.51784189 -41.95703125 90.68359375 C-42.92957445 91.9349837 -43.90223087 93.18628567 -44.875 94.4375 C-45.33044189 95.02829346 -45.78588379 95.61908691 -46.25512695 96.2277832 C-49.04876267 99.80758803 -51.97400431 103.041598 -55.25 106.1875 C-69.86830409 83.27471821 -69.86830409 83.27471821 -75.81713867 73.62963867 C-77.69611333 70.60001384 -79.61704997 67.62592128 -81.67578125 64.71484375 C-82.42214844 63.65394531 -83.16851563 62.59304688 -83.9375 61.5 C-84.60136719 60.58863281 -85.26523437 59.67726563 -85.94921875 58.73828125 C-87.5573984 55.58470373 -87.23309978 54.52542258 -86.25 51.1875 C-84.99414062 49.24975586 -84.99414062 49.24975586 -83.40625 47.40234375 C-82.82359375 46.71253418 -82.2409375 46.02272461 -81.640625 45.31201172 C-81.01671875 44.59029785 -80.3928125 43.86858398 -79.75 43.125 C-78.46666234 41.6072315 -77.18541671 40.08769166 -75.90625 38.56640625 C-74.96652344 37.45096436 -74.96652344 37.45096436 -74.0078125 36.31298828 C-71.652125 33.46456948 -69.44555394 30.53627254 -67.25 27.5625 C-66.54617188 26.61890625 -65.84234375 25.6753125 -65.1171875 24.703125 C-63.98656264 23.17985636 -62.86426161 21.65029366 -61.7578125 20.109375 C-52.5983164 8.20720493 -33.71737233 2.62399106 -19.37890625 0.65625 C-12.93209415 -0.04022 -6.47751874 0.00337371 0 0 Z " fill="#FEFEFE" transform="translate(770.25,994.8125)"/>
<path d="M0 0 C1.77440587 2.32413574 3.29603875 4.57670179 4.8125 7.0625 C5.27317871 7.79823242 5.73385742 8.53396484 6.20849609 9.29199219 C7.23661816 10.93604458 8.2597606 12.58321793 9.27880859 14.23291016 C11.16748787 17.26926347 13.09131122 20.28158174 15.01953125 23.29296875 C16.38861164 25.44493675 17.75710575 27.59727785 19.125 29.75 C19.78862549 30.78519775 20.45225098 31.82039551 21.13598633 32.88696289 C22.06254028 34.35830688 22.06254028 34.35830688 23.0078125 35.859375 C23.56098145 36.73045898 24.11415039 37.60154297 24.68408203 38.49902344 C26.6454896 42.22678952 27.25265918 44.85401013 26.34375 48.9765625 C24.82745135 52.38823447 23.03059333 54.63900137 20.5 57.375 C19.7059375 58.24898437 18.911875 59.12296875 18.09375 60.0234375 C16 62 16 62 14 62 C14 62.66 14 63.32 14 64 C12.50390625 65.4375 12.50390625 65.4375 10.5625 67 C7.84811762 69.14525044 7.84811762 69.14525044 6 72 C5.34 72 4.68 72 4 72 C3.79117188 72.53753906 3.58234375 73.07507812 3.3671875 73.62890625 C1.47274844 76.91440484 -1.16300673 79.33281582 -3.875 81.9375 C-6.84180153 84.80685185 -9.67509714 87.58560635 -12.2265625 90.83984375 C-14 93 -14 93 -16.5 93.625 C-22.50309677 92.12422581 -25.94510723 83.39039337 -29 78.375 C-32.44231865 72.74117221 -35.89384118 67.12370609 -39.51953125 61.60546875 C-40.07318359 60.7561377 -40.62683594 59.90680664 -41.19726562 59.03173828 C-42.25151269 57.42009155 -43.31619402 55.81520859 -44.39257812 54.21826172 C-46.45253135 51.04937166 -47.87989267 48.5762292 -48.65625 44.8515625 C-47.74329545 40.88455762 -45.48880383 38.59967367 -42.6875 35.8125 C-42.18798828 35.29236328 -41.68847656 34.77222656 -41.17382812 34.23632812 C-39.79784389 32.80931401 -38.39970433 31.40375557 -37 30 C-36.14341797 29.07767578 -36.14341797 29.07767578 -35.26953125 28.13671875 C-34 27 -34 27 -32 27 C-31.73445312 26.41863281 -31.46890625 25.83726563 -31.1953125 25.23828125 C-27.82555711 18.9282491 -22.19008807 14.08510075 -16.69921875 9.640625 C-14.89924856 8.09645998 -14.89924856 8.09645998 -14.04296875 5.97265625 C-12.67609366 3.38736816 -11.16823051 2.58585432 -8.625 1.1875 C-7.46871094 0.52814453 -7.46871094 0.52814453 -6.2890625 -0.14453125 C-3.5925213 -1.152283 -2.65923355 -0.98352989 0 0 Z " fill="#788A8D" transform="translate(742,1144)"/>
<path d="M0 0 C1.61902222 -0.00906372 1.61902222 -0.00906372 3.27075195 -0.01831055 C4.41374756 -0.00453369 5.55674316 0.00924316 6.734375 0.0234375 C8.4827063 0.03540161 8.4827063 0.03540161 10.26635742 0.04760742 C34.26902196 0.44142061 34.26902196 0.44142061 41.484375 6.3984375 C42.0078125 8.9921875 42.0078125 8.9921875 41.859375 11.8984375 C41.82585938 12.8575 41.79234375 13.8165625 41.7578125 14.8046875 C41.484375 17.3984375 41.484375 17.3984375 40.484375 20.3984375 C40.29952163 22.61541181 40.16384194 24.83660564 40.0546875 27.05859375 C39.98316212 28.41588342 39.91103618 29.77314155 39.83837891 31.13037109 C39.80141907 31.83861023 39.76445923 32.54684937 39.72637939 33.27655029 C38.64464633 53.47172223 38.64464633 53.47172223 37.109375 63.2734375 C37.0077002 63.99023682 36.90602539 64.70703613 36.80126953 65.44555664 C36.314536 68.22734004 35.97602629 69.98518163 33.76953125 71.83984375 C30.85740783 72.55169614 28.29645362 72.54885012 25.296875 72.4609375 C19.53806593 72.36991312 13.8572672 72.53476941 8.109375 72.8984375 C7.35374268 72.94621338 6.59811035 72.99398926 5.81958008 73.04321289 C4.04096218 73.15832779 2.26263213 73.27787769 0.484375 73.3984375 C-2.10698129 68.86180834 -3.04162123 64.90723495 -3.453125 59.7734375 C-4.19396924 52.1821018 -5.51940898 44.80853169 -7.10717773 37.35107422 C-8.85942253 29.06235621 -9.72887785 21.06164386 -9.828125 12.5859375 C-9.85712891 11.74095703 -9.88613281 10.89597656 -9.91601562 10.02539062 C-9.92439453 9.21392578 -9.93277344 8.40246094 -9.94140625 7.56640625 C-9.96328003 6.47235474 -9.96328003 6.47235474 -9.9855957 5.35620117 C-9.515625 3.3984375 -9.515625 3.3984375 -7.83374023 1.6628418 C-5.02332937 0.12991732 -3.19298402 0.01117917 0 0 Z " fill="#FFBE1C" transform="translate(492.515625,619.6015625)"/>
<path d="M0 0 C1.72854944 1.9415749 3.08641526 3.72264401 4.5 5.875 C4.91942871 6.48706299 5.33885742 7.09912598 5.77099609 7.72973633 C6.69324227 9.07898549 7.60877928 10.43283812 8.51855469 11.79052734 C10.63623942 14.94890684 12.78804723 18.08363433 14.93676758 21.22094727 C16.06356621 22.86723021 17.18840048 24.51485935 18.3112793 26.16381836 C21.24770468 30.47153392 24.22301373 34.73725541 27.3125 38.9375 C30.06881227 42.710533 32.81912629 46.48535394 35.5 50.3125 C36.1703125 51.25738281 36.840625 52.20226562 37.53125 53.17578125 C39.28028166 56.53894585 39.75660777 58.27171564 39 62 C36.9770249 63.8502821 35.30519925 65.1093069 33 66.5 C31.79968973 67.26782759 30.60046788 68.03735934 29.40234375 68.80859375 C28.81694824 69.17839355 28.23155273 69.54819336 27.62841797 69.92919922 C25.48921745 71.3358759 23.53654425 72.9347793 21.5625 74.5625 C19.03790624 76.47185663 18.03886861 76.99314083 14.8125 77.5625 C6.89303607 75.97860721 2.57144935 69.32775799 -2.125 63.25 C-3.99290712 60.85396727 -3.99290712 60.85396727 -6.75 58.8125 C-7.4925 58.214375 -8.235 57.61625 -9 57 C-9 56.34 -9 55.68 -9 55 C-9.66 55 -10.32 55 -11 55 C-12.41438406 53.42713316 -13.75604401 51.78860004 -15.0625 50.125 C-18.92988711 45.28137925 -22.95548593 40.65329924 -27.15234375 36.09375 C-31.08110078 31.64171244 -31.62555289 28.6938352 -31.49609375 22.90625 C-29.97758179 14.01040041 -20.57996399 7.44112407 -14 2 C-9.53446279 -0.9770248 -5.11927327 -1.75540035 0 0 Z " fill="#FFBE1C" transform="translate(425,644)"/>
<path d="M0 0 C10.09614789 2.10515424 19.30242402 8.71546806 26.75390625 15.57421875 C27.31078125 16.07695313 27.86765625 16.5796875 28.44140625 17.09765625 C32.32606926 21.09267901 32.62415687 25.26628975 32.75390625 30.57421875 C32.09390625 30.57421875 31.43390625 30.57421875 30.75390625 30.57421875 C30.48529785 31.31591309 30.21668945 32.05760742 29.93994141 32.82177734 C28.7937534 35.48174514 27.57524603 37.36080043 25.77734375 39.61328125 C25.19283447 40.35336426 24.6083252 41.09344727 24.00610352 41.85595703 C23.38662842 42.6292334 22.76715332 43.40250977 22.12890625 44.19921875 C20.85277172 45.81269977 19.57802532 47.42727969 18.3046875 49.04296875 C17.69061035 49.8215625 17.0765332 50.60015625 16.44384766 51.40234375 C14.32848071 54.12096616 12.31443095 56.89331424 10.31640625 59.69921875 C1.81798567 71.54217904 1.81798567 71.54217904 -2.24609375 73.57421875 C-11.58933661 74.99945919 -18.55918983 70.3946633 -26.24609375 65.57421875 C-28.44972972 63.86977378 -29.10802314 63.19093416 -29.71484375 60.48046875 C-29.79357253 54.41835267 -28.49931653 50.37833926 -25.796875 45.00390625 C-23.79120038 40.56818252 -22.35307555 36.01884277 -20.87109375 31.38671875 C-18.68233574 24.64635261 -16.36530817 18.02180051 -13.55859375 11.51171875 C-13.28547363 10.86372314 -13.01235352 10.21572754 -12.73095703 9.5480957 C-9.94134304 3.26767626 -7.31413222 -0.3494396 0 0 Z " fill="#FFBE1C" transform="translate(595.24609375,635.42578125)"/>
<path d="M0 0 C0.33 0.66 0.66 1.32 1 2 C0.34 1.67 -0.32 1.34 -1 1 C-0.67 0.67 -0.34 0.34 0 0 Z " fill="#FFFFFF" transform="translate(870,990)"/>
<path d="M0 0 C2 1 2 1 2 1 Z " fill="#FFFFFF" transform="translate(858,1010)"/>
<path d="" fill="#FFFFFF" transform="translate(0,0)"/>
<path d="" fill="#FFFFFF" transform="translate(0,0)"/>
</svg>
