<?xml version="1.0" encoding="UTF-8"?>
<!-- Generator: Adobe Illustrator 27.0.0, SVG Export Plug-In . SVG Version: 6.00 Build 0)  -->
<svg version="1.1" id="Layer_1" xmlns="http://www.w3.org/2000/svg" xmlns:xlink="http://www.w3.org/1999/xlink" x="0px" y="0px" viewBox="0 0 512 512" style="enable-background:new 0 0 512 512;" xml:space="preserve">
<style type="text/css">
	.st0{fill:#FFFFFF;}
	.st1{fill:#1D4E9E;}
	.st2{fill:#FBC707;}
</style>
<g id="XMLID_1_">
	<polygon id="XMLID_3_" class="st0" points="0,388.84 512,388.84 512,123.16 0,123.16  "/>
	<path id="XMLID_4_" class="st1" d="M19.64,135.36c-4.07,0-7.29,3.09-7.29,7.01v165.94c0,3.79,3.23,7.01,7.29,7.01h181.8V135.36   H19.64"/>
	<path id="XMLID_5_" class="st2" d="M492.36,135.36H207.89v179.97h284.34c4.07,0,7.29-3.09,7.29-7.01V142.38   C499.66,138.45,496.29,135.36,492.36,135.36"/>
	<polyline id="XMLID_6_" class="st0" points="116.99,282.09 116.85,282.23 116.85,282.37 116.99,282.37 116.99,282.37    117.13,282.37 117.13,282.37 117.13,282.23 117.13,282.23 116.99,282.09  "/>
	<polyline id="XMLID_7_" class="st1" points="240.15,156.83 263.72,156.83 263.72,273.67 312.95,273.67 312.95,293.73    240.15,293.73 240.15,156.83  "/>
	<polygon id="XMLID_8_" class="st1" points="338.34,293.73 362.05,293.73 362.05,156.83 338.34,156.83  "/>
	<path id="XMLID_9_" class="st1" d="M443.97,245.34h23.43c0,15.99-3.09,28.48-9.12,37.59c-6.03,9.12-13.19,13.75-28.05,13.75   c-17.53,0-25.81-4.35-32.68-13.05c-6.73-8.7-10.1-23.15-10.1-43.2v-29.04c0-21.6,3.51-36.61,10.66-44.89   c7.15-8.42,14.59-12.62,30.02-12.62c14.45,0,22.72,3.79,29.18,11.22c6.45,7.43,9.68,18.94,9.68,34.51h-24.13   c0-8.42-0.84-14.73-2.67-18.8s-5.19-6.17-10.24-6.17c-12.48,0-18.8,9.54-18.8,28.48v44.47c0,10.24,1.54,17.53,4.77,21.88   s8,6.45,14.17,6.45c4.63,0,8.14-2.24,10.38-6.87C442.84,264.42,443.97,256.56,443.97,245.34"/>
	<polyline id="XMLID_10_" class="st1" points="12.34,359.66 15.85,359.66 15.85,373.55 23,373.55 23,376.36 12.34,376.36    12.34,359.66  "/>
	<rect id="XMLID_11_" x="26.09" y="359.66" class="st1" width="3.37" height="16.69"/>
	<polyline id="XMLID_12_" class="st1" points="33.81,359.66 44.47,359.66 44.47,362.47 37.31,362.47 37.31,366.96 41.52,366.96    41.52,369.76 37.31,369.76 37.31,376.36 33.81,376.36 33.81,359.66  "/>
	<polyline id="XMLID_13_" class="st1" points="47.41,359.66 59.06,359.66 59.06,362.47 50.78,362.47 50.78,366.26 55.83,366.26    55.83,368.78 50.78,368.78 50.78,373.55 59.06,373.55 59.06,376.36 47.41,376.36 47.41,359.66  "/>
	<rect id="XMLID_14_" x="69.72" y="359.66" class="st1" width="3.37" height="16.69"/>
	<polyline id="XMLID_15_" class="st1" points="77.43,359.66 81.08,359.66 88.23,370.88 88.23,359.66 91.6,359.66 91.6,376.36    88.23,376.36 80.94,364.71 80.94,376.36 77.43,376.36 77.43,359.66  "/>
	<path id="XMLID_16_" class="st1" d="M97.77,371.73c0.56,0.84,1.12,1.4,1.68,1.82c0.56,0.28,1.26,0.56,1.96,0.56   c0.84,0,1.68-0.28,2.1-0.7c0.56-0.42,0.7-0.98,0.7-1.54c0-0.56-0.14-0.98-0.56-1.4c-0.42-0.42-1.26-0.7-2.81-1.12   c-1.96-0.42-3.37-1.12-4.21-1.82c-0.98-0.84-1.54-1.96-1.54-3.23c0-1.4,0.56-2.52,1.54-3.51c0.98-0.98,2.52-1.4,4.21-1.4   c0.98,0,1.96,0.14,2.81,0.56c0.84,0.28,1.54,0.7,2.1,1.26c0.42,0.28,0.7,0.84,1.12,1.4l-2.95,1.12c-0.42-0.7-0.98-1.12-1.54-1.4   c-0.56-0.28-1.12-0.42-1.68-0.42c-0.7,0-1.4,0.14-1.82,0.56c-0.42,0.42-0.7,0.84-0.7,1.54c0,0.42,0.14,0.84,0.56,1.26   c0.42,0.28,1.26,0.7,2.81,0.98c1.54,0.42,2.67,0.7,3.37,1.26c0.7,0.42,1.4,1.12,1.68,1.82c0.42,0.7,0.56,1.54,0.56,2.38   c0,0.84-0.28,1.68-0.7,2.52c-0.56,0.84-1.26,1.54-2.24,1.96c-0.98,0.42-2.1,0.7-3.37,0.7s-2.24-0.14-3.09-0.56   c-0.84-0.42-1.68-0.84-2.24-1.54c-0.42-0.42-0.84-0.98-1.12-1.68L97.77,371.73"/>
	<path id="XMLID_17_" class="st1" d="M110.82,359.66h3.37v10.24c0,1.26,0.28,2.24,0.98,2.81c0.56,0.7,1.4,0.98,2.52,0.98   c0.7,0,1.26-0.14,1.82-0.42s0.98-0.7,1.26-1.26c0.28-0.56,0.42-1.26,0.42-2.24v-10.24h3.51v10.66c0,2.1-0.56,3.65-1.68,4.77   c-1.12,1.12-2.81,1.68-5.05,1.68c-1.26,0-2.52-0.14-3.65-0.56c-0.56-0.28-1.12-0.42-1.54-0.84c-0.56-0.42-0.98-1.12-1.4-1.82   c-0.42-0.7-0.56-1.68-0.56-2.95L110.82,359.66"/>
	<path id="XMLID_20_" class="st1" d="M128.77,359.66h4.77c2.52,0,4.21,0.14,5.19,0.56c0.98,0.42,1.68,0.98,2.24,1.82   c0.56,0.84,0.84,1.82,0.84,2.95c0,0.98-0.28,1.82-0.7,2.52c-0.42,0.7-1.26,1.26-2.52,1.68l3.09,7.29h-3.51l-2.81-6.87h-3.23v6.73   h-3.37V359.66z M132.14,362.61v4.49h2.81c0.98,0,1.82-0.28,2.52-0.84c0.42-0.42,0.7-0.84,0.7-1.54c0-0.56-0.28-1.12-0.84-1.54   c-0.56-0.42-1.4-0.56-2.52-0.56H132.14"/>
	<path id="XMLID_23_" class="st1" d="M148.97,359.66h3.65l5.61,16.69h-3.37l-1.26-3.93h-5.61l-1.26,3.93h-3.37L148.97,359.66z    M150.79,364.15l-1.96,5.89h3.93L150.79,364.15"/>
	<polyline id="XMLID_24_" class="st1" points="160.75,359.66 164.4,359.66 171.41,370.88 171.41,359.66 174.92,359.66    174.92,376.36 171.41,376.36 164.12,364.71 164.12,376.36 160.75,376.36 160.75,359.66  "/>
	<path id="XMLID_25_" class="st1" d="M192.04,371.59c-0.28,0.98-0.56,1.68-0.98,2.24c-0.56,0.84-1.4,1.54-2.38,2.1   c-0.98,0.56-2.1,0.7-3.37,0.7c-1.4,0-2.67-0.28-3.79-0.98c-1.26-0.7-2.1-1.54-2.81-2.95c-0.56-1.26-0.98-2.81-0.98-4.49   c0-1.82,0.28-3.37,0.98-4.77s1.54-2.38,2.81-3.09c1.26-0.7,2.52-0.98,3.93-0.98c0.98,0,1.96,0.14,2.95,0.56   c0.98,0.42,1.68,0.98,2.38,1.82c0.42,0.56,0.84,1.26,0.98,2.1l-3.23,0.84c-0.28-0.84-0.7-1.54-1.26-2.1   c-0.56-0.42-1.26-0.7-2.1-0.7c-1.26,0-2.24,0.56-2.81,1.68c-0.7,1.12-0.98,2.52-0.98,4.35c0,1.12,0.14,2.1,0.42,2.95   c0.28,0.84,0.7,1.54,1.26,1.96s1.12,0.56,1.82,0.56c0.98,0,1.82-0.28,2.52-0.98c0.56-0.42,0.98-1.12,1.26-1.96L192.04,371.59"/>
	<polyline id="XMLID_26_" class="st1" points="194.98,359.66 206.62,359.66 206.62,362.47 198.35,362.47 198.35,366.26    203.4,366.26 203.4,368.78 198.35,368.78 198.35,373.55 206.62,373.55 206.62,376.36 194.98,376.36 194.98,359.66  "/>
	<path id="XMLID_27_" class="st1" d="M230.19,371.59c-0.28,0.98-0.56,1.68-0.98,2.24c-0.56,0.84-1.4,1.54-2.38,2.1   c-0.98,0.56-2.1,0.7-3.37,0.7c-1.4,0-2.67-0.28-3.79-0.98c-1.26-0.7-2.1-1.54-2.81-2.95c-0.7-1.26-0.98-2.81-0.98-4.49   c0-1.82,0.28-3.37,0.98-4.77s1.54-2.38,2.81-3.09c1.26-0.7,2.52-0.98,3.93-0.98c0.98,0,1.96,0.14,2.95,0.56   c0.98,0.42,1.68,0.98,2.38,1.82c0.42,0.56,0.84,1.26,0.98,2.1l-3.23,0.84c-0.28-0.84-0.7-1.54-1.26-2.1   c-0.56-0.42-1.26-0.7-2.1-0.7c-1.26,0-2.24,0.56-2.81,1.68c-0.7,1.12-0.98,2.52-0.98,4.35c0,1.12,0.14,2.1,0.42,2.95   c0.28,0.84,0.7,1.54,1.26,1.96c0.56,0.42,1.12,0.56,1.82,0.56c0.98,0,1.82-0.28,2.52-0.98c0.56-0.42,0.98-1.12,1.26-1.96   L230.19,371.59"/>
	<path id="XMLID_30_" class="st1" d="M239.45,359.38c1.68,0,2.95,0.28,3.93,0.84c1.26,0.7,2.24,1.68,2.95,2.95s0.98,2.95,0.98,5.05   c0,2.81-0.7,4.91-2.1,6.45c-1.4,1.4-3.23,2.1-5.47,2.1c-2.24,0-4.21-0.7-5.61-2.24c-1.4-1.4-2.1-3.65-2.1-6.45   c0-1.68,0.28-3.23,0.84-4.63c0.28-0.7,0.84-1.4,1.4-2.1c0.7-0.7,1.4-1.12,2.24-1.54C237.48,359.52,238.47,359.38,239.45,359.38z    M239.73,362.19c-1.12,0-2.1,0.42-2.95,1.4c-0.7,0.84-1.12,2.38-1.12,4.49c0,2.1,0.42,3.51,1.12,4.35c0.84,0.84,1.82,1.4,2.95,1.4   s2.1-0.42,2.95-1.4c0.7-0.84,1.12-2.38,1.12-4.35c0-2.24-0.42-3.93-1.4-4.77C241.83,362.61,240.85,362.19,239.73,362.19"/>
	<path id="XMLID_33_" class="st1" d="M250.67,359.66h4.77c2.52,0,4.21,0.14,5.19,0.56s1.68,0.98,2.24,1.82   c0.56,0.84,0.84,1.82,0.84,2.95c0,0.98-0.28,1.82-0.7,2.52c-0.42,0.7-1.26,1.26-2.52,1.68l3.09,7.29h-3.37l-2.95-6.73h-3.23v6.73   h-3.37V359.66z M254.04,362.61v4.49h2.81c0.98,0,1.82-0.28,2.52-0.84c0.42-0.42,0.7-0.84,0.7-1.54c0-0.56-0.28-1.12-0.84-1.54   c-0.56-0.42-1.4-0.56-2.52-0.56H254.04"/>
	<path id="XMLID_36_" class="st1" d="M266.8,359.66h5.47c1.96,0,3.37,0.14,4.35,0.42c0.98,0.28,1.68,0.84,2.38,1.54   c0.56,0.7,0.84,1.68,0.84,2.81c0,0.84-0.14,1.68-0.56,2.38c-0.28,0.56-0.7,0.98-1.26,1.4s-1.12,0.7-1.68,0.98   c-0.98,0.42-1.96,0.56-3.23,0.56h-3.09v6.59h-3.51v-16.69H266.8z M270.31,362.47v4.49h2.81c0.98,0,1.96-0.28,2.67-0.84   c0.42-0.42,0.7-0.84,0.7-1.54c0-0.7-0.28-1.12-0.7-1.54c-0.56-0.42-1.26-0.56-2.52-0.56H270.31"/>
	<path id="XMLID_39_" class="st1" d="M289.53,359.38c1.68,0,2.95,0.28,3.93,0.84c1.26,0.7,2.38,1.68,2.95,2.95   c0.7,1.26,0.98,2.95,0.98,5.05c0,2.81-0.7,4.91-2.1,6.45c-1.4,1.4-3.23,2.1-5.47,2.1s-4.21-0.7-5.61-2.24   c-1.4-1.4-2.1-3.65-2.1-6.45c0-1.68,0.28-3.23,0.84-4.63c0.28-0.7,0.84-1.4,1.4-2.1c0.7-0.7,1.4-1.12,2.24-1.54   C287.42,359.38,288.4,359.38,289.53,359.38z M289.81,362.19c-1.12,0-2.1,0.42-2.95,1.4c-0.7,0.84-1.12,2.38-1.12,4.49   c0,2.1,0.42,3.51,1.12,4.35c0.84,0.84,1.82,1.4,2.95,1.4c1.12,0,2.1-0.42,2.95-1.4c0.7-0.84,1.12-2.38,1.12-4.35   c0-2.24-0.42-3.93-1.4-4.77C291.77,362.61,290.93,362.19,289.81,362.19"/>
	<path id="XMLID_42_" class="st1" d="M300.61,359.66h4.77c2.52,0,4.21,0.14,5.19,0.56s1.68,0.98,2.24,1.82   c0.56,0.84,0.84,1.82,0.84,2.95c0,0.98-0.28,1.82-0.7,2.52c-0.42,0.7-1.26,1.26-2.52,1.68l3.09,7.29h-3.37l-2.95-6.73h-3.23v6.73   h-3.37L300.61,359.66L300.61,359.66z M304.11,362.61v4.49h2.81c0.98,0,1.82-0.28,2.52-0.84c0.42-0.42,0.7-0.84,0.7-1.54   c0-0.56-0.28-1.12-0.84-1.54c-0.56-0.42-1.4-0.56-2.52-0.56H304.11"/>
	<path id="XMLID_45_" class="st1" d="M320.81,359.66h3.65l5.61,16.69h-3.37l-1.26-3.93h-5.61l-1.26,3.93h-3.37L320.81,359.66z    M322.63,364.15l-1.96,5.89h3.93L322.63,364.15"/>
	<polyline id="XMLID_46_" class="st1" points="329.36,359.66 342.55,359.66 342.55,362.47 337.64,362.47 337.64,376.36    334.27,376.36 334.27,362.47 329.36,362.47 329.36,359.66  "/>
	<rect id="XMLID_47_" x="345.64" y="359.66" class="st1" width="3.37" height="16.69"/>
	<path id="XMLID_50_" class="st1" d="M359.8,359.38c1.68,0,2.95,0.28,3.93,0.84c1.26,0.7,2.38,1.68,2.95,2.95   c0.7,1.26,0.98,2.95,0.98,5.05c0,2.81-0.7,4.91-2.1,6.45c-1.4,1.4-3.23,2.1-5.47,2.1c-2.24,0-4.21-0.7-5.61-2.24   c-1.4-1.54-2.1-3.65-2.1-6.45c0-1.68,0.28-3.23,0.84-4.63c0.28-0.7,0.84-1.4,1.4-2.1c0.7-0.7,1.4-1.12,2.24-1.54   C357.84,359.52,358.82,359.38,359.8,359.38z M360.08,362.19c-1.12,0-2.1,0.42-2.95,1.4c-0.7,0.84-1.12,2.38-1.12,4.49   c0,2.1,0.42,3.51,1.12,4.35c0.84,0.84,1.82,1.4,2.95,1.4c1.12,0,2.1-0.42,2.95-1.4c0.7-0.84,1.12-2.38,1.12-4.35   c0-2.24-0.42-3.93-1.4-4.77C362.19,362.61,361.21,362.19,360.08,362.19"/>
	<polyline id="XMLID_51_" class="st1" points="370.88,359.66 374.53,359.66 381.69,370.88 381.69,359.66 385.05,359.66    385.05,376.36 381.69,376.36 374.25,364.71 374.25,376.36 370.88,376.36 370.88,359.66  "/>
	<path id="XMLID_54_" class="st1" d="M402.73,359.38c1.68,0,2.95,0.28,3.93,0.84c1.26,0.7,2.38,1.68,2.95,2.95   c0.7,1.26,0.98,2.95,0.98,5.05c0,2.81-0.7,4.91-2.1,6.45c-1.4,1.4-3.23,2.1-5.47,2.1s-4.21-0.7-5.61-2.24   c-1.4-1.4-2.1-3.65-2.1-6.45c0-1.68,0.28-3.23,0.84-4.63c0.28-0.7,0.84-1.4,1.4-2.1c0.7-0.7,1.4-1.12,2.24-1.54   C400.76,359.52,401.74,359.38,402.73,359.38z M403.15,362.19c-1.12,0-2.1,0.42-2.95,1.4c-0.7,0.84-1.12,2.38-1.12,4.49   c0,2.1,0.42,3.51,1.12,4.35c0.84,0.84,1.82,1.4,2.95,1.4c1.12,0,2.1-0.42,2.95-1.4c0.7-0.84,1.12-2.38,1.12-4.35   c0-2.24-0.42-3.93-1.4-4.77C405.11,362.61,404.13,362.19,403.15,362.19"/>
	<polyline id="XMLID_55_" class="st1" points="413.95,359.66 424.61,359.66 424.61,362.47 417.32,362.47 417.32,366.96    421.52,366.96 421.52,369.76 417.32,369.76 417.32,376.36 413.95,376.36 413.95,359.66  "/>
	<rect id="XMLID_56_" x="434.99" y="359.66" class="st1" width="3.37" height="16.69"/>
	<polyline id="XMLID_57_" class="st1" points="442.7,359.66 446.35,359.66 453.51,370.88 453.51,359.66 456.87,359.66    456.87,376.36 453.51,376.36 446.21,364.71 446.21,376.36 442.7,376.36 442.7,359.66  "/>
	<path id="XMLID_60_" class="st1" d="M460.94,359.66h6.31c1.54,0,2.81,0.28,4.07,1.12c1.12,0.7,2.1,1.68,2.67,2.95   c0.56,1.26,0.98,2.67,0.98,4.21c0,1.54-0.28,2.81-0.84,4.07c-0.56,1.26-1.26,2.1-2.1,2.81c-0.56,0.42-1.4,0.84-2.38,1.12   c-0.98,0.28-1.96,0.42-3.09,0.42h-5.75v-16.69H460.94z M464.45,362.47v10.94h2.38c0.84,0,1.54-0.28,2.24-0.7   c0.7-0.42,1.12-0.98,1.54-1.68c0.56-0.98,0.84-2.1,0.84-3.23c0-1.68-0.42-2.95-1.4-3.93c-0.98-0.98-2.24-1.4-3.79-1.4H464.45"/>
	<rect id="XMLID_61_" x="478.47" y="359.66" class="st1" width="3.37" height="16.69"/>
	<path id="XMLID_64_" class="st1" d="M490.26,359.66h3.65l5.61,16.69h-3.37l-1.26-3.93h-5.61l-1.26,3.93h-3.37L490.26,359.66z    M492.08,364.15l-1.96,5.89h3.93L492.08,364.15"/>
	<path id="XMLID_68_" class="st0" d="M114.32,220.09c5.47-3.09,9.4-8.7,9.4-11.92c0-2.38-3.79-4.35-9.4-5.33v0.98   c4.35,0.84,7.43,2.24,7.43,3.37c0,1.12-2.67,2.1-6.31,2.67h-0.14c-0.28,0-0.7,0-0.98,0.14V220.09z M107.87,202.28   c0.42-1.26,0.98-2.81,1.54-4.49c1.82-4.63-0.7-9.96-1.4-11.5c-0.84-1.54-2.81-6.17-2.81-6.17c-0.98,7.15-4.21,10.24-5.33,13.75   c-0.56,1.82,0.28,3.93,1.12,5.61c0.56,0.98,1.26,1.96,1.82,2.95c-1.4,0.14-2.81,0.42-3.93,0.7v0.84c1.4-0.28,2.95-0.56,4.49-0.7   c0.14,0.28,0.42,0.42,0.56,0.7c0.84,1.12,1.54,2.24,1.54,3.79c0,2.38-4.07,2.38-6.59,2.1v9.68c2.52,1.54,5.33,2.52,8.42,2.52   c2.52,0,4.91-0.7,7.15-1.82v-10.1c-2.67,0-6.17-0.14-7.15-2.38c-0.42-0.84-0.14-2.38,0.42-4.49c2.52,0,4.77,0.28,6.73,0.7v-1.26   C112.36,202.56,110.26,202.28,107.87,202.28z M98.75,202.98c-4.91,0.98-8.28,2.95-8.28,5.05c0,2.95,3.37,8.14,8.28,11.36v-9.68   c-3.93-0.56-6.59-1.54-6.59-2.67c0-1.12,2.67-2.52,6.59-3.23V202.98"/>
	<path id="XMLID_69_" class="st0" d="M70.28,183.2c0,0,0.84-3.23,0.84-3.79c0-0.84-0.56-3.23,2.1-1.68c2.67,1.4,1.96,3.37,1.4,4.63   c-0.56,1.12-1.96,5.33-2.67,6.73l-2.95,7.72c0,0-0.28,0.7-0.42,0.98c-0.14,0.14-1.26,4.07-0.84,8.42l0.56,5.05   c0,0,0.14,0.42,0.56,0c0,0,0.56-0.28,0.14-2.81c0,0,0-5.19,0.14-6.17c0.14-1.12,0.7-4.35,0.98-4.91c0.28-0.7,0.42-0.84,0.98-2.24   c0.56-1.54,2.38-6.03,2.38-6.03s2.52-4.91,2.81-6.17c0,0,1.12-2.67,0.98-6.17c0,0-0.28-0.98,0.14-1.26c0.56-0.42,2.38,0,3.09,0.56   c0.7,0.56,1.96,1.68,1.82,3.37c-0.14,1.54-0.98,4.49-2.1,7.29c0,0-0.98,2.1-1.54,2.81c-0.42,0.56-2.95,6.03-2.95,6.31   c-0.14,0.28-0.28,0.7-0.56,0.98c0,0-1.26,3.51-1.4,4.77c-0.28,1.26-0.7,2.67-0.98,5.47c-0.14,2.67,0.84,6.31,0.84,6.31   s0.14,0.7,0.56,0.7c0.42,0,0.42-1.4,0.42-1.54c0-0.28-0.14-1.54-0.28-2.24c-0.14-0.56,0-5.05,0-5.05s0.42-3.23,1.4-5.47   c0.42-0.84,0.7-2.1,1.26-3.23c0.84-1.82,1.68-3.51,1.68-3.51s3.09-6.31,3.23-6.73c0.14-0.42,1.68-4.21,1.82-6.17   c0-1.82,0.42-3.23,0.42-3.23s-0.28-1.4,1.68-0.7c1.82,0.84,3.09,2.38,3.23,3.79c0,0,0.28,1.4-0.28,1.54   c-0.7,0.28-0.98-0.14-1.4,0.28c0,0-0.42,0.28-0.42,0.98c-0.14,0.56-0.56,2.24-0.7,2.67c0,0.56,0,1.12-0.42,2.67   c-0.56,1.4-2.24,6.17-2.38,6.45c0,0-1.12,3.23-1.26,3.37c0,0.28-0.28,0.7-0.42,0.98c0,0.14-1.54,5.33-1.68,6.45   c-0.14,1.12-0.56,3.23-0.42,4.63c0,1.26,0.42,2.95,0.7,4.07c0,0,0.14,0.42,0.7,0.28c0.42-0.14-0.42-1.68-0.14-4.07   c0.28-2.38,0.7-5.61,0.98-6.45c0.14-0.98,1.82-5.47,1.82-5.61c0.14-0.28,1.68-4.77,2.1-5.47c0.28-0.84,1.68-5.05,1.82-5.75   c0.14-0.84,0.14-2.95,2.38-3.23c2.38,0.7,2.24,4.63,1.96,6.03c0,0-0.42,4.07-1.96,7.29c-1.4,3.09-1.26,3.09-1.26,3.23   c0,0.28,0.42,3.23,0.28,4.49c0,1.12,0.14,2.38-0.56,4.91c-0.84,2.52-0.28,2.81-0.14,3.23c0.28,0.56,1.68,2.38,2.1,3.37   c0.28,1.12,0.7,3.23,0.84,3.51s1.82,1.82,2.52,3.09c0.56,1.12,2.38,3.79,2.52,4.07c0.14,0.42,5.75,7.29,7.29,9.82   c1.54,2.67,2.95,5.05,2.81,7.43c-0.14,1.82-0.98,3.79-2.1,5.33c-0.56,0.7-1.26,1.26-2.1,1.82c-0.42,0.28-1.4,0.7-1.68,1.26   l-1.12,4.77h-21.6l4.63-7.86c0,0,1.54-0.98-1.82-4.91c-3.37-3.79-8.98-13.47-8.98-13.47s-5.05-8.42-6.03-10.1   c-1.54-2.24-1.26-13.61-1.26-16.97c0,0-0.56-4.07,1.82-9.54C68.31,188.39,70.28,183.2,70.28,183.2"/>
	<path id="XMLID_70_" class="st0" d="M143.78,183.2c0,0-0.7-3.23-0.84-3.79c0-0.84,0.56-3.23-2.1-1.68c-2.52,1.4-1.82,3.37-1.4,4.63   c0.56,1.12,1.96,5.33,2.81,6.73l2.95,7.72c0,0,0.28,0.7,0.28,0.98c0.14,0.14,1.26,4.07,0.84,8.42l-0.56,5.05c0,0-0.14,0.42-0.56,0   c0,0-0.56-0.28-0.14-2.81c0,0,0-5.19-0.14-6.17c-0.14-1.12-0.56-4.35-0.98-4.91c-0.28-0.7-0.42-0.84-0.98-2.24   c-0.42-1.54-2.38-6.03-2.38-6.03s-2.52-4.91-2.81-6.17c0,0-1.12-2.67-0.98-6.17c0,0,0.42-0.98-0.14-1.26   c-0.56-0.42-2.24,0-2.95,0.56c-0.7,0.56-2.1,1.68-1.96,3.37c0.28,1.54,0.98,4.49,2.1,7.29c0,0,0.98,2.1,1.54,2.81   c0.42,0.56,2.95,6.03,3.09,6.31c0,0.28,0.28,0.7,0.42,0.98c0,0,1.26,3.51,1.4,4.77c0.28,1.26,0.84,2.67,0.98,5.47   c0.14,2.67-0.84,6.31-0.84,6.31s-0.14,0.7-0.56,0.7s-0.42-1.4-0.42-1.54c0-0.28,0.14-1.54,0.28-2.24c0.14-0.56,0-5.05,0-5.05   s-0.42-3.23-1.4-5.47c-0.28-0.84-0.7-2.1-1.26-3.23c-0.7-1.82-1.68-3.51-1.68-3.51s-2.95-6.31-3.09-6.73   c-0.14-0.42-1.82-4.21-1.96-6.17c0-1.82-0.42-3.23-0.42-3.23s0.42-1.4-1.54-0.7c-1.96,0.84-3.23,2.38-3.37,3.79   c0,0-0.28,1.4,0.42,1.54c0.56,0.28,0.98-0.14,1.26,0.28c0,0,0.42,0.28,0.56,0.98c0,0.56,0.42,2.24,0.56,2.67   c0.14,0.56,0,1.12,0.42,2.67c0.56,1.4,2.24,6.17,2.38,6.45c0,0,1.12,3.23,1.26,3.37c0.14,0.28,0.28,0.7,0.42,0.98   c0.14,0.14,1.54,5.33,1.68,6.45c0.14,1.12,0.56,3.23,0.56,4.63c-0.14,1.26-0.42,2.95-0.7,4.07c0,0-0.28,0.42-0.7,0.28   c-0.56-0.14,0.28-1.68,0-4.07c-0.14-2.38-0.7-5.61-0.98-6.45c-0.14-0.98-1.68-5.47-1.82-5.61c0-0.28-1.68-4.77-2.1-5.47   c-0.28-0.84-1.54-5.05-1.82-5.75c-0.14-0.84-0.14-2.95-2.38-3.23c-2.38,0.7-2.24,4.63-1.96,6.03c0,0,0.42,4.07,1.96,7.29   c1.54,3.09,1.26,3.09,1.26,3.23c0,0.28-0.42,3.23-0.28,4.49c0,1.12-0.14,2.38,0.56,4.91c0.84,2.52,0.28,2.81,0.14,3.23   c-0.14,0.56-1.68,2.38-2.1,3.37c-0.28,1.12-0.56,3.23-0.84,3.51c-0.14,0.28-1.82,1.82-2.52,3.09c-0.56,1.12-2.38,3.79-2.52,4.07   c-0.14,0.42-5.75,7.29-7.29,9.82c-1.54,2.67-2.81,5.05-2.67,7.43c0,1.82,0.84,3.79,2.1,5.33c0.56,0.7,1.12,1.26,1.96,1.82   c0.56,0.28,1.4,0.7,1.68,1.26l1.12,4.77h22.16l-4.63-7.86c0,0-1.68-0.98,1.68-4.91c3.37-3.79,8.98-13.47,8.98-13.47   s5.19-8.42,6.17-10.1c1.4-2.24,1.26-13.61,1.12-16.97c0,0,0.56-4.07-1.82-9.54C146.03,188.39,143.78,183.2,143.78,183.2"/>
	<path id="XMLID_73_" class="st0" d="M107.17,299.77c2.1-0.14,3.93-0.14,3.93-0.14c14.17,0,27.77-6.17,38.58-17.39   c9.26-9.68,15.01-21.88,15.01-31.84v-51.06c0-9.12-5.89-21.18-15.29-30.86c-10.94-11.36-24.83-17.53-39.14-17.53c0,0-1.54,0-3.09,0   v1.54c1.68,0,3.09,0,3.09,0c22.72,0,39.84,16.27,47.83,31.28c2.95,5.61,1.96,11.22,1.96,15.57v51.06c0,5.47,0.7,11.92-2.67,17.96   c-2.38,4.49-5.19,8.98-8.98,12.91c-10.52,10.8-23.71,16.69-37.31,16.69c0,0-1.96,0.14-3.93,0.14L107.17,299.77L107.17,299.77z    M107.17,150.79c-1.82,0-3.51,0-3.51,0c-14.17,0-28.2,6.17-39.14,17.53c-9.4,9.68-15.29,21.74-15.29,31.42v50.92   c0,9.68,5.75,21.88,15.01,31.42c10.8,11.22,24.41,17.39,38.58,17.39c0,0,2.24,0.14,4.21,0.14h0.28v-1.54   c-2.24,0-4.49-0.14-4.49-0.14c-13.61,0-26.79-5.89-37.31-16.69c-3.65-3.93-6.87-8.28-9.26-12.62c-2.38-4.91-1.96-12.48-1.96-18.24   v-51.06c0-5.47-0.98-12.34,3.37-19.22c8.7-14.03,25.25-27.49,46.01-27.49c0,0,1.82,0,3.51,0V150.79"/>
	<path id="XMLID_74_" class="st0" d="M99.88,267.78c0,0.56-0.42,0.98-0.98,0.98s-0.98-0.42-0.98-0.98c0-0.42,0.42-0.84,0.98-0.84   S99.88,267.36,99.88,267.78"/>
	<path id="XMLID_79_" class="st0" d="M100.86,270.17c0,0-2.38-0.14-4.35-0.42v1.54c0.42,0,0.84,0.14,1.12,0.14l-0.14,2.95h-0.98   v2.38l0.7,0.14l-0.14,3.23l2.1,0.28l0.84-8.7h0.84V270.17z M96.51,269.89c-0.42,0-0.84-0.14-1.26-0.14   c-0.98-0.14-2.1-0.42-3.23-0.7l-1.4-2.24l-2.38-0.56l1.4,2.24c-0.56-0.14-0.84-0.14-0.84-0.14l-0.42,1.4c0,0,0.28,0.14,0.7,0.14   l-0.28,1.26l-1.96-0.42c0.7-0.56,1.12-1.12,1.12-1.96c0-1.26-1.12-2.38-2.52-2.38v1.82c0.42,0,0.56,0.28,0.56,0.56   c0,0.28-0.14,0.42-0.28,0.56h-0.28v2.95l2.95,0.84l-1.26,5.75l2.24,0.42l1.96-8.84c0.7,0.14,1.4,0.42,2.1,0.42L93,274.1   c0,0-1.12-0.28-1.4,0.98c-0.14,1.12,1.12,2.1,1.68,2.67c0.98,1.12,1.68-0.7,1.68-0.7v-0.28l1.54,0.14v-2.38l-1.26-0.14l0.56-3.09   c0.28,0.14,0.42,0.14,0.7,0.14L96.51,269.89L96.51,269.89z M85.57,278.44v-3.93c0.28-0.14,0.56-0.14,0.56-0.14l0.98,1.12   c-0.28,0.42-0.7,0.7-1.12,0.98l-0.14,1.96H85.57z M85.57,266.52c-1.54,0-2.67,0.98-2.67,2.38c0,0.56,0.14,1.12,0.56,1.4   c-0.56,0.14-0.98,0.42-1.12,0.56c-0.56,0.56-1.96,1.68-1.54,3.23c0.28,1.68,2.1,2.52,2.67,2.81h0.28l0.14,1.12l1.68,0.42v-3.93   c-0.28,0.14-0.7,0.28-0.84,0.28c-0.56,0.14-1.12-0.14-1.54-0.56c-0.7-1.12,0.84-2.52,2.1-1.96l0.28,0.14v-2.95   c-0.28,0-0.56-0.28-0.56-0.56c0-0.28,0.28-0.56,0.56-0.56V266.52"/>
	<path id="XMLID_82_" class="st0" d="M82.34,268.34l0.56-1.4c0,0-4.07-1.4-8.28-3.37l-0.7-2.95l-1.96-0.98l0.56,2.95   c-2.52-1.26-4.63-2.67-6.03-3.37v3.93c0.56-0.7,0.7-1.26,0.7-1.68c0.56,0.28,1.26,0.7,1.82,1.12l-1.96,3.09   c0,0-0.14,0.28-0.56,0.42v5.19l4.49-7.57c0.42,0.28,0.84,0.42,1.26,0.7l-4.35,8l1.96,0.98l4.35-8c0.56,0.28,1.12,0.56,1.68,0.84   c0.84,2.67-0.42,3.37-0.42,3.37c-0.28-0.7-1.4-0.84-1.4-0.84s-1.68,0.28-1.26,1.82c0.28,1.54,1.82,2.67,3.51,1.12   c1.54-1.26,1.82-3.65,1.82-4.63c0.42,0.14,0.98,0.42,1.4,0.56l-3.37,8.42l2.1,0.84l3.23-8.42   C82.06,268.2,82.34,268.34,82.34,268.34z M66.49,259.09c-0.84-0.7-1.4-0.98-1.4-0.98l-1.12,1.12c0,0,0.56,0.28,1.26,0.84   c0,0.28,0.28,2.1-2.1,1.68h-0.84c0,0-1.54,2.67,0.14,4.91c1.12,1.26,3.51,1.12,3.51,1.12l-1.54,2.38l1.96,1.12l0.14-0.28v-5.19   c-0.42,0.14-1.12,0.14-1.82-0.28c-1.12-0.98-0.42-1.68-0.42-1.68c1.12,0,1.82-0.28,2.24-0.84L66.49,259.09"/>
	<path id="XMLID_88_" class="st0" d="M152.9,266.52l1.54-1.26l-5.61-7.29c0.7-0.56,1.12-0.84,1.12-0.84l-0.84-0.84   c0,0-0.7,0.56-1.96,1.26v1.96l1.82,2.1l-1.54,1.12l-0.28-0.28v3.51c0.28,0,0.56,0,0.84,0c1.12,0,0.84-1.4,0.84-1.4l1.68-1.12   L152.9,266.52z M147.01,257.68c-2.81,1.82-8.14,5.19-14.31,7.57v1.68l1.54,3.09c0.14,0.84-0.14,1.96-1.4,2.24l-0.14,0.14v2.1   c1.12,0,2.24-0.28,3.09-1.4l1.26,2.24l1.96-0.84l-3.93-8.56c1.68-0.7,3.23-1.4,4.49-2.1l0.28,0.42c0,0-0.7,0.56-1.54,1.12   c-0.84,0.56-1.26,1.12-1.12,2.24c0,1.12,1.96,1.96,1.96,1.96s-0.28,1.12,0.42,2.67c1.26,2.24,4.77,1.26,4.77,1.26l-0.42-1.54   l-0.84,0.14c-1.82-0.14-1.82-1.4-1.82-1.82c0.14-0.42,0.56-1.82,1.96-1.68c1.4,0.14,0.84,1.82,0.84,1.82l1.4,0.7   c0.42-0.42,0.7-0.98,0.7-0.98c0.28-3.23-1.4-3.37-2.81-3.65c-1.4-0.42-2.67,0.84-2.67,0.84s-0.7,0.42-0.84,0.14   c-0.14-0.28,0.14-0.56,0.14-0.56l2.95-1.96l-1.4-2.24c0.7-0.28,1.26-0.7,1.68-0.98c0.56,0.56,1.96,2.67,1.96,2.67   c0,0.28-0.42,0.42-0.28,1.12c0.28,0.84,1.26,0.98,2.24,0.98v-3.51l-1.82-2.38c0.56-0.28,1.12-0.7,1.54-0.98l0.28,0.28v-2.24H147.01   z M132.7,265.4c-1.4,0.56-2.81,1.12-4.07,1.54c-8.14,2.52-17.11,3.23-21.46,3.37v1.26c0.28,0,0.56,0,0.98,0v0.98   c-0.28,0.14-0.56,0.14-0.7,0.14h-0.28v1.96h0.28c0.28,0,0.7,0,0.98,0.14l0.14,2.24c-0.28,0.14-0.7,0.28-1.12,0.28h-0.28v1.96h0.28   c0.42,0,0.98-0.14,1.4-0.28l0.14,1.68l2.24-0.14l-0.7-9.12c1.68-0.14,3.37-0.28,5.33-0.56l0.28,0.84c0,0-1.12,0.14-2.1,0.28   c-0.98,0.28-1.4,0.7-1.82,1.68c-0.42,0.98,1.12,2.52,1.12,2.52s-0.84,0.98-0.56,2.67c0.28,2.52,3.93,2.95,3.93,2.95l0.28-1.54   l-0.98-0.28c-1.68-0.84-1.12-1.96-0.98-2.24c0.28-0.42,1.26-1.54,2.52-1.12c1.26,0.7,0,1.96,0,1.96l1.12,1.12   c0.56-0.28,0.98-0.7,0.98-0.7c1.54-2.95,0-3.65-1.26-4.49c-1.12-0.7-2.67,0-2.67,0s-0.84,0.14-0.98-0.14   c0-0.28,0.42-0.56,0.42-0.56l3.37-0.7l-0.42-2.67c0.42-0.14,0.98-0.14,1.4-0.28l2.52,8.84l2.24-0.42l-2.38-8.84   c0.7-0.14,1.26-0.28,1.96-0.42c0.28,0.84,1.26,3.37,1.26,3.37l-0.84,0.56c0,0-0.84,0.98,0.42,1.54c1.26,0.84,2.1,0.98,2.38,1.12   c0.14,0,0.98-0.28,0.98-1.4l1.4-0.56l-1.4-1.96l-0.84,0.28l-1.12-3.37c0.84-0.28,1.68-0.42,2.38-0.7c0.42,0.14,1.26,0.56,1.26,1.26   c-0.14,1.26-1.26,1.26-1.26,1.26l-0.56,0.7c0,0,1.4,2.24,3.37,2.67c0.56,0,0.98,0.14,1.54,0.14v-2.1   c-1.26,0.14-1.68-0.98-1.68-0.98s0.84-0.56,0.98-1.68c0-0.98-0.56-1.96-0.7-2.24c0.42-0.28,0.84-0.42,1.4-0.56v-1.26H132.7z    M107.17,270.31c-1.82,0.14-2.95,0.14-2.95,0.14l0.14,1.26c0,0,0.98,0,2.81-0.14V270.31z M107.17,272.69   c-2.1,0.14-3.65,1.54-3.65,3.23c0,1.68,1.68,3.23,3.65,3.23v-1.96c-0.84-0.14-1.54-0.7-1.54-1.26c0-0.7,0.7-1.12,1.54-1.26V272.69"/>
	<path id="XMLID_89_" class="st0" d="M153.74,266.52l2.1-1.12c0,0,0.42-0.28,0.7,0c0.28,0.42-0.14,0.56-0.14,0.56   s-1.54,1.4-1.96,1.4c-0.42,0.14-0.56,0-0.7,0C153.74,267.36,153.6,266.8,153.74,266.52"/>
	<path id="XMLID_92_" class="st1" d="M274.52,330.91h-54.29c0,0-0.56,0-1.26,0c-1.54,0-4.07,0-4.35,0c-0.28-0.28-1.82-2.1-1.82-2.1   l-1.68-1.68c-1.26-1.26-2.81-2.24-4.63-3.09c-1.54-0.7-2.95-1.12-4.35-1.12c-3.23,0-5.61,1.12-6.73,3.51   c-0.42,0.84-0.7,1.54-0.56,2.1l0.14,0.98l0.42,0.84l0.42,0.56h-26.09v2.67c0,0,27.49,0,28.62,0c0,0.7,0,2.95,0,3.65   c-0.98,0-14.45,0-14.45,0l1.4,0.98l0.7,0.56l1.54,1.4c0.56,0.56,1.12,1.26,1.54,2.1c0.28,0.56,0.42,1.12,0.42,1.68   c0,0.7-0.28,1.12-0.7,1.54c-0.56,0.56-1.26,0.7-2.24,0.7c-1.82,0-3.65-0.84-5.33-2.52c-1.54-1.4-2.67-2.95-3.37-4.49l-0.98-2.1   v-0.28v-1.26l-3.65,1.82l0.42,1.26l1.12,1.96c1.12,2.1,2.52,3.79,4.21,5.19c2.38,1.82,4.91,2.81,7.57,2.81   c1.12,0,2.1-0.14,2.95-0.28c1.82-0.56,3.09-1.4,3.65-2.67c0.28-0.7,0.56-1.26,0.56-1.96l-0.28-1.12l-0.56-1.4l-0.98-1.68   c1.68,0,6.03,0,6.87,0c0,0.98,0,11.64,0,11.64h4.07c0,0,0-16.69,0-17.81c0.7,0,3.09,0,4.21,0c0.28,0,0.42,0,0.42,0   c1.12,0,3.79,0,4.49,0c0,0.98,0,17.81,0,17.81h4.07c0,0,0-16.69,0-17.81c0.56,0,2.24,0,3.51,0c0.7,0,1.26,0,1.26,0   c4.07,0,16.55,0,17.39,0c0,0.98,0,8.56,0,8.98c-0.56,0.56-1.26,0.98-2.38,1.26c-0.56,0.28-1.12,0.42-1.68,0.56l-1.12,0.14h-0.56   c-0.7,0-1.4-0.14-2.1-0.28c-1.68-0.56-2.52-1.54-2.52-3.23c0-0.42,0.14-0.84,0.28-1.12c0.56-0.84,1.26-1.4,1.96-1.68   c0.56-0.14,1.12-0.28,1.96-0.28l1.4,0.14l1.4,0.28l0.42,0.14l1.68,0.7l-1.12-3.37h-0.28l-0.98-0.14l-0.84-0.14l-1.12-0.14h-1.12   c-2.1-0.14-4.07,0.56-5.61,1.68c-1.68,1.26-2.52,2.67-2.52,4.21c0,0.84,0.28,1.68,0.7,2.38c0.42,0.56,1.26,1.26,2.1,1.82   c1.68,0.98,3.79,1.54,6.17,1.54l1.82-0.14l1.82-0.42l1.4-0.56c0,0,0.28-0.14,0.42-0.28c0,1.26,0,5.47,0,5.47h4.07   c0,0,0-16.69,0-17.81c0.56,0,2.52,0,3.79,0c0.7,0,1.26,0,1.26,0c4.35,0,18.66,0,19.5,0c0,0.7,0,3.23,0,3.93   c-1.12,0-14.87,0-14.87,0h-0.7l-0.56,0.14c-1.12,0.42-1.4,1.12-1.4,1.68l0,0l0,0c0.14,0.42,0.42,0.84,0.84,1.26   c0.56,0.7,1.26,1.26,1.82,1.68l2.1,1.54c0.84,0.42,1.26,0.56,1.54,0.56l0.84-0.14l0.56-0.28l0.42-0.56v-0.56c0,0,0-1.96,0-2.67   c0.98,0,8.42,0,9.4,0c0,0.98,0,11.08,0,11.08h4.07c0,0,0-16.69,0-17.81c0.84,0,4.63,0,4.63,0v-2.67h-0.56V330.91z M206.9,330.91   h-6.45l-0.28-0.28l-0.7-0.84l-0.56-0.98l-0.14-0.7v-0.56c0.14-0.42,0.42-0.98,0.84-1.26c0.56-0.56,1.26-0.7,2.38-0.7   s2.67,0.7,4.35,1.96c2.67,1.96,3.65,3.09,4.07,3.51C209.71,330.91,207.89,330.91,206.9,330.91"/>
	<path id="XMLID_96_" class="st1" d="M147.43,330.91v2.67c0,0-3.23,0-4.07,0c0,0.98,0,17.81,0,17.81h-4.07c0,0,0-4.35,0-5.47   c-1.82,0.84-3.93,1.4-6.31,1.4c-3.09,0-5.61-0.7-7.72-1.96c-2.38-1.4-3.65-3.37-3.65-5.47v-0.7l1.12,0.28l0.42,0.14l0.7,0.14h-0.14   h0.56c1.26,0,2.38-0.28,3.23-0.7c0.7-0.42,1.12-0.98,1.12-1.96c0-0.42-0.28-1.12-1.26-2.24c0,0-0.98-0.84-1.26-1.12   c-0.28,0-5.75,0-7.57,0c0,0-0.28,0-0.7,0c-1.12,0-3.37,0-4.07,0c0,0.98,0,17.81,0,17.81h-4.07c0,0,0-16.69,0-17.81   c-0.56,0-2.67,0-3.93,0c0,0-0.42,0-0.98,0c-1.26,0-3.51,0-4.07,0c0,0.98,0,17.81,0,17.81h-4.07c0,0,0-11.5,0-12.48   c-0.98,0-9.96,0-9.96,0c-0.56,0-1.12,0-1.68,0.28c-0.7,0.14-1.12,0.42-1.4,0.98c0,0.14-0.14,0.7-0.14,0.7   c0,1.54,0.7,3.23,2.24,4.77c1.54,1.68,2.95,2.81,4.07,3.23l0.84,0.14l1.4,0.28l-2.95,2.1v0.28l-0.28-0.14l-0.98-0.42l-1.54-0.98   l-2.24-1.68l-1.12-0.98l-0.84-0.98c-1.54-1.82-2.38-3.65-2.38-5.47c0-1.26,0.56-2.38,1.4-3.23c0.42-0.42,0.98-0.7,1.82-0.98   c0.7-0.28,1.54-0.42,2.24-0.42c0,0,10.66,0,11.78,0c0-0.7,0-1.96,0-2.67c-0.84,0-14.59,0-19.5,0c0,0-0.7,0-1.68,0   c-1.12,0-2.38,0-2.81,0c0,0.84,0,4.35,0,4.35c0,1.96-1.4,3.23-4.21,3.93c-0.84,0.28-1.68,0.28-2.38,0.28c0,0-0.28,0-0.42,0   c1.12,1.12,2.81,2.67,2.81,2.67l1.54,1.26l2.95,2.1l1.96,1.26l-3.09,1.82h-0.28c-0.7-0.14-1.82-0.84-3.37-2.1   c-1.96-1.54-3.79-3.09-5.47-4.91l-1.82-1.68l-1.68-1.82l-1.12-1.4l-1.54-1.82l3.37-1.68l2.52,2.95c0.42,0.56,1.4,0.7,2.81,0.7   c1.12,0,2.1-0.14,2.52-0.42c0.42-0.28,0.7-0.84,0.84-1.4c0,0,0-3.37,0-4.21c-0.84,0-8.98,0-13.19,0c-1.4,0-2.38,0-2.38,0   c-1.26,0-2.52,0-3.09,0c0,0.98,0,17.81,0,17.81h-4.07c0,0,0-16.69,0-17.81c-0.56,0-2.67,0-4.07,0c0,0-0.56,0-1.4,0   c-1.4,0-3.51,0-4.07,0c0,0.98,0,17.81,0,17.81h-4.07c0,0,0-8.42,0-9.4h-7.72c0,0.84,0,2.95,0,2.95l-0.14,0.56l-0.7,0.42l-0.7,0.14   c-0.42,0-0.98-0.14-1.68-0.56c-0.98-0.56-1.82-0.98-2.52-1.54l-2.24-1.68c-0.42-0.56-0.7-0.84-0.84-1.26v-0.28l0.28-0.56l0.56-0.42   l0.7-0.28l0.56-0.14c0,0,1.96,0,2.81,0c0-0.84,0-4.63,0-4.63c0-0.14,0-0.42-0.42-0.7c-0.42-0.28-0.84-0.42-1.54-0.42l-0.98,0.14   c0,0-0.7,0.28-0.84,0.28l-0.42,0.42l-0.14,0.56v0.28l0.28,0.56l0.14,0.14l0.98,1.12h-4.21l-0.42-0.56v-0.14v-0.14l-0.28-0.56   l-0.14-0.56c-0.14-0.84,0.14-2.1,1.82-3.09c1.26-0.7,2.67-0.98,4.35-0.98c2.81,0,4.63,0.7,5.47,2.24c0.28,0.56,0.42,1.12,0.42,1.68   c0,0,0,3.65,0,4.49h7.72v-5.75c-0.98,0-5.47,0-5.47,0v-2.67H94.4l-0.42-0.56l-0.42-0.84l-0.14-0.98c-0.14-0.56,0.14-1.26,0.56-2.1   c1.12-2.24,3.51-3.51,6.73-3.51c1.4,0,2.95,0.42,4.35,1.12c1.82,0.84,3.37,1.96,4.63,3.09l1.68,1.68c0,0,1.54,1.82,1.82,2.1   c0.42,0,3.51,0,4.91,0c0.42,0,0.7,0,0.7,0h28.62V330.91z M108.99,330.91c-0.42-0.56-1.4-1.54-4.07-3.51   c-1.68-1.26-3.23-1.96-4.35-1.96c-1.12,0-1.82,0.28-2.38,0.7c-0.42,0.42-0.7,0.84-0.84,1.26v0.56l0.14,0.7l0.56,0.98l0.7,0.84   l0.28,0.28h6.87C106.89,330.91,108.29,330.91,108.99,330.91z M139.29,333.57c-0.84,0-6.31,0-8.14,0c0.14,0.14,0.42,0.42,0.42,0.42   l0.98,1.54l0.28,1.26l0,0c0,1.96-1.26,3.37-3.65,4.35l-1.4,0.42c0,0-0.56,0.14-1.12,0.14l0.14,0.28l0.14,0.28   c1.26,1.68,3.09,2.38,5.75,2.38c1.4,0,2.81-0.28,3.93-0.84c0.7-0.28,1.26-0.56,1.68-0.84c0,0,0.84-0.7,1.12-0.98   C139.29,341.71,139.29,334.55,139.29,333.57"/>
	<path id="XMLID_101_" class="st1" d="M377.2,330.91h-40.68c0,0-0.28,0-0.7,0c-1.4,0-4.63,0-4.91,0c-0.28-0.28-1.82-2.1-1.82-2.1   l-1.68-1.68c-1.26-1.26-2.81-2.24-4.63-3.09c-1.54-0.7-2.95-1.12-4.35-1.12c-3.23,0-5.61,1.12-6.73,3.51   c-0.42,0.84-0.7,1.54-0.56,2.1l0.14,0.98l0.42,0.84l0.42,0.56h-15.43v2.67c0,0,16.83,0,17.96,0c0,0.98,0,8.28,0,8.56l-0.14,0.14   c-0.84-0.42-6.17-2.81-7.72-3.51c0.28-0.14,0.84-0.28,0.84-0.28l1.26-0.28h1.12l1.4,0.14c0.56,0.14,0.7,0.28,0.7,0.28l1.26,0.98   l-0.84-3.51l-0.84-0.14h-0.28l-1.54-0.14l-1.26-0.14c-0.98,0-1.96,0.14-3.23,0.42c-0.98,0.28-1.96,0.7-2.81,1.26   c-1.68,1.12-2.67,2.52-2.67,4.21c0,0.98,0.28,1.68,0.7,2.38s1.12,1.26,2.24,1.96c1.82,1.12,3.93,1.54,6.17,1.54h1.54l1.82-0.42   l1.4-0.56c0,0,0.28-0.14,0.56-0.28c0,1.4,0,5.19,0,5.19h4.07c0,0,0-16.69,0-17.81c0.84,0,3.65,0,4.07,0l0,0c0.42,0,4.07,0,4.91,0   c0,0.98,0,17.81,0,17.81h4.07c0,0,0-16.69,0-17.81c0.7,0,2.95,0,4.07,0c0.42,0,0.7,0,0.7,0c1.68,0,5.75,0,6.45,0   c0,0.84,0,4.77,0,5.61c-0.7,0-1.82,0-1.82,0l-0.7,0.14l-0.28,0.14l-0.84,0.42l-0.14,0.14v0.14l-0.14,0.56v0.14   c0,0.42,0.28,0.84,0.7,1.26l2.95,2.38c0.98,0.7,1.82,1.12,2.52,1.12l0.84-0.14l0.56-0.28l0.42-0.56l0.14-0.14l0,0   c0,0,0-1.82,0-2.38c0.98,0,8,0,8.98,0c0,0.98,0,9.4,0,9.4h4.07c0,0,0-16.69,0-17.81c0.42,0,1.68,0,2.67,0c0.84,0,1.54,0,1.54,0   c1.4,0,3.37,0,3.93,0c0,0.98,0,17.81,0,17.81h4.07c0,0,0-16.69,0-17.81c0.98,0,5.47,0,5.47,0v-2.67h-0.42V330.91z M322.91,330.91   h-6.17l-0.28-0.28l-0.7-0.84l-0.56-0.98l-0.14-0.7v-0.56c0.14-0.42,0.42-0.98,0.84-1.26c0.56-0.56,1.26-0.7,2.38-0.7   c1.12,0,2.67,0.7,4.35,1.96c2.67,1.96,3.65,3.09,4.07,3.51C325.86,330.91,323.47,330.91,322.91,330.91z M356.02,333.57   c0,0.84,0,4.77,0,5.61c-0.98,0-8,0-8.98,0c0-0.84,0-4.77,0-5.61C347.88,333.57,355.03,333.57,356.02,333.57z M304.53,340.59   L304.53,340.59c0.84,0.28,6.31,2.95,7.72,3.65l-0.28,0.14l-1.4,0.42l-0.56,0.14h-0.7c-0.56,0-1.26-0.14-1.96-0.28   c-0.7-0.14-1.26-0.42-1.68-0.84c-0.98-0.56-1.4-1.26-1.4-1.96v-0.28v-0.42L304.53,340.59"/>
	<path id="XMLID_106_" class="st1" d="M498.95,330.91h-65.79l-1.4-0.98l-1.68-1.12l-4.07-2.24c-1.12-0.7-2.52-1.26-3.93-1.82   c-3.65-1.4-6.87-2.24-9.82-2.24c-1.26,0-2.52,0.14-3.65,0.42c-1.68,0.42-3.09,1.12-4.21,2.24c-0.98,0.98-1.54,1.96-1.54,3.09v0.42   v0.56l0.28,1.12c0,0,0.14,0.28,0.28,0.56c-1.26,0-4.77,0-4.77,0v2.67c0,0,4.07,0,4.91,0c0,0.98,0,17.67,0,17.67h4.07   c0,0,0-16.69,0-17.67c0.84,0,4.77,0,4.77,0l0,0c3.37,0,19.22,0,20.2,0c0,0.7,0,3.23,0,3.93c-1.12,0-14.87,0-14.87,0h-0.7   l-0.56,0.14c-1.12,0.42-1.4,1.12-1.4,1.68l0,0l0,0c0.14,0.42,0.42,0.84,0.84,1.26c0.56,0.7,1.26,1.26,1.82,1.68l2.1,1.54   c0.84,0.42,1.26,0.56,1.54,0.56l0.84-0.14l0.56-0.28l0.42-0.56v-0.56c0,0,0-1.96,0-2.67c0.98,0,8.42,0,9.4,0   c0,0.98,0,11.08,0,11.08h4.07c0,0,0-16.69,0-17.81c0.56,0,2.67,0,3.79,0c0.56,0,0.84,0,0.84,0c2.1,0,7.43,0,8.28,0   c0,0.84,0,4.07,0,4.91c-0.7,0-2.67,0-2.67,0h-0.7h-0.7l-0.56,0.42l0,0l-0.28,0.7c0,0.42,0.28,0.98,0.7,1.54   c0.98,1.12,2.52,2.24,4.21,3.09c0.84,0.28,1.54,0.56,1.96,0.56l0.98-0.14h0.14c0.28-0.14,0.56-0.56,0.7-0.84v-0.14   c0,0,0-9.12,0-10.24c0.98,0,6.73,0,7.72,0c0,0.98,0,17.81,0,17.81h4.07c0,0,0-16.69,0-17.81c0.7,0,3.93,0,5.47,0   c0.42,0,0.84,0,0.84,0c1.68,0,5.61,0,6.31,0c0,0.84,0,4.77,0,5.61c-0.7,0-1.82,0-1.82,0l-0.7,0.14l-0.28,0.14l-0.84,0.42   l-0.14,0.14v0.14l-0.14,0.56v0.14c0,0.42,0.28,0.84,0.7,1.26l2.95,2.38c0.98,0.7,1.82,1.12,2.52,1.12l0.84-0.14l0.56-0.28   l0.42-0.56l0.14-0.14l0,0c0,0,0-1.82,0-2.38c0.98,0,8,0,8.98,0c0,0.98,0,9.4,0,9.4h4.07c0,0,0-16.69,0-17.81c0.84,0,4.21,0,4.21,0   v-2.67h-0.28V330.91z M411.98,330.91L411.98,330.91c-1.26,0-4.07,0-4.49,0l-0.14-0.14l-0.28-0.7l-0.28-0.7v-0.7v-0.14   c0-0.42,0.14-0.84,0.42-1.4c0.56-0.98,1.54-1.54,2.81-1.82c0.56-0.14,1.26-0.28,2.1-0.28c0.98,0,2.24,0.14,3.51,0.42   c1.54,0.42,2.95,0.84,4.07,1.26l3.37,1.54l1.26,0.56l1.96,1.12l1.12,0.7h-15.43V330.91z M491.24,333.57c0,0.84,0,4.77,0,5.61   c-0.98,0-8,0-8.98,0c0-0.84,0-4.77,0-5.61C483.24,333.57,490.26,333.57,491.24,333.57"/>
</g>
</svg>